<svg width="214" height="214" viewBox="0 0 214 214" fill="none" xmlns="http://www.w3.org/2000/svg">
<path d="M60.3908 19.1915H19.7693V75.114H60.3908V19.1915Z" fill="#440C61"/>
<path d="M57.8528 19.1915H15.9003V75.114H57.8528V19.1915Z" fill="#61118B"/>
<path d="M53.8595 23.1034H19.902V70.7998H53.8595V23.1034Z" fill="#FAFAFA"/>
<path d="M19.902 70.7998H53.8595V58.2893H19.902V70.7998Z" fill="#F5F5F5"/>
<path d="M40.63 44.5334L41.73 47.1014C41.73 47.1014 39.2219 48.9332 39.59 51.7538C39.9581 54.5743 42.0467 60.2752 42.0467 60.2752H46.438C46.438 60.2752 48.6336 52.3273 48.578 51.0219C48.5223 49.7165 46.6434 47.1699 46.6434 47.1699L47.6364 44.5591C47.6364 44.5591 43.7159 42.128 40.63 44.5334Z" fill="#E0E0E0"/>
<path d="M40.4033 52.9479C39.5473 52.1818 38.4986 51.2359 38.152 49.9519C38.0639 49.7011 38.0355 49.4332 38.0689 49.1694C38.1023 48.9057 38.1967 48.6534 38.3446 48.4325C38.5006 48.2473 38.6983 48.1018 38.9216 48.008C39.1448 47.9143 39.3871 47.8749 39.6286 47.8932C40.0503 47.9252 40.4638 48.0264 40.8526 48.1928L40.66 48.715C40.3294 48.5727 39.9784 48.4832 39.62 48.4496C39.4699 48.4367 39.3188 48.4585 39.1785 48.5134C39.0383 48.5684 38.9125 48.6549 38.8111 48.7663C38.7236 48.9196 38.6702 49.09 38.6547 49.2658C38.6392 49.4416 38.6619 49.6187 38.7212 49.785C39.0251 50.9149 40.0052 51.8051 40.8013 52.5199L40.4033 52.9479Z" fill="#E0E0E0"/>
<path d="M48.1244 53.3031L47.6964 52.9222C48.2269 52.3335 48.6512 51.6572 48.9504 50.9234C49.0956 50.6111 49.1813 50.2743 49.2029 49.9305C49.2258 49.6226 49.1327 49.3172 48.9419 49.0745C48.8233 48.9481 48.6767 48.8513 48.5139 48.7919C48.3511 48.7324 48.1767 48.7119 48.0045 48.7321C47.6336 48.7821 47.2909 48.9573 47.033 49.2286L46.605 48.8006C46.9579 48.4359 47.4242 48.202 47.9275 48.1372C48.1904 48.1077 48.4566 48.1407 48.7043 48.2337C48.952 48.3267 49.1742 48.4769 49.3527 48.6722C49.6502 49.022 49.8032 49.4719 49.7807 49.9305C49.7528 50.3413 49.6528 50.7441 49.4854 51.1203C49.1619 51.9214 48.7013 52.66 48.1244 53.3031Z" fill="#E0E0E0"/>
<path d="M47.6364 44.5548C47.3122 44.6827 46.9726 44.7676 46.6263 44.8073C45.8009 44.9526 44.9648 45.0285 44.1268 45.0342C43.2886 45.0393 42.4514 44.9778 41.623 44.8501C41.2768 44.8178 40.9368 44.7371 40.6129 44.6105C40.9585 44.6156 41.3032 44.6457 41.6444 44.7003C42.4691 44.7851 43.2978 44.8252 44.1268 44.8202C44.955 44.8106 45.7822 44.7577 46.6049 44.6618C46.9455 44.5998 47.2903 44.564 47.6364 44.5548Z" fill="#EBEBEB"/>
<path d="M53.8596 29.5534C53.4316 28.9756 51.4114 28.2394 50.7009 28.1239C47.5423 27.6017 44.2381 27.5504 41.1993 28.5519C38.1605 29.5534 35.4042 31.7362 34.24 34.7065C33.6023 36.243 33.414 37.9379 32.6136 39.376C31.595 41.2121 29.7375 42.3977 28.3336 43.947C26.5266 45.927 25.4761 48.4811 25.3673 51.1595C25.2585 53.838 26.0982 56.4689 27.7387 58.5889L36.2645 58.6959C36.0548 55.3404 36.0633 51.9121 37.0606 48.7064C38.0578 45.5007 40.1636 42.5175 43.228 41.1265C46.4423 39.6713 50.504 40.0223 54.0094 40.523L53.8596 29.5534Z" fill="#EBEBEB"/>
<path d="M32.2455 23.112C33.1914 24.5672 31.9759 26.964 30.7389 28.1624C29.502 29.3608 27.9227 30.388 27.3449 32.0358C26.7671 33.6836 27.3449 35.494 27.0753 37.2103C26.9477 37.9867 26.6435 38.7234 26.186 39.3636C25.7286 40.0037 25.1302 40.5303 24.437 40.9025C23.7439 41.2747 22.9744 41.4827 22.1881 41.5104C21.4018 41.5381 20.6196 41.3848 19.902 41.0623V23.112H32.2455Z" fill="#EBEBEB"/>
<path d="M28.8815 54.1506C28.8815 54.1506 29.3437 54.8011 29.1597 55.2163C28.9756 55.6314 26.75 58.5975 27.5846 60.6348C28.2633 62.1462 29.1012 63.581 30.0841 64.9148H35.2715C35.2715 64.9148 37.8395 60.8873 37.771 59.5434C37.6811 57.3178 36.059 55.0066 36.059 55.0066L36.487 54.1506C36.487 54.1506 31.672 52.7638 28.8815 54.1506Z" fill="#E0E0E0"/>
<path d="M53.8595 70.7998C53.8595 70.7998 53.8595 70.7184 53.8595 70.5686C53.8595 70.4188 53.8595 70.1877 53.8595 69.8967C53.8595 69.2975 53.8595 68.4244 53.8595 67.2902C53.8595 65.0132 53.8595 61.6919 53.8338 57.4932C53.8338 49.0959 53.8038 37.1846 53.7867 23.1034L53.8809 23.1976H19.9276L20.0346 23.0906C20.0346 40.9553 20.0346 57.4761 20.0346 70.7869L19.949 70.7013L44.6361 70.7441L51.4841 70.7655H53.286C53.714 70.7655 53.9066 70.7655 53.9066 70.7655H53.3031H51.5183L44.6703 70.7912L19.9276 70.834H19.842V70.7484C19.842 57.4376 19.842 40.9168 19.842 23.0521V22.9451H19.9533H53.9066H54.005V23.112C54.005 37.236 53.9708 49.1515 53.9579 57.5617C53.9579 61.7561 53.9579 65.0688 53.9322 67.3415C53.9322 68.4672 53.9322 69.336 53.9322 69.9095C53.9322 70.1963 53.9322 70.4188 53.9322 70.5686C53.9322 70.7184 53.8595 70.7998 53.8595 70.7998Z" fill="#E0E0E0"/>
<path d="M57.8485 19.1915C57.2771 19.9301 56.6349 20.611 55.931 21.2245C55.2765 21.892 54.5849 22.5222 53.8595 23.112C54.4346 22.3753 55.078 21.6946 55.7812 21.079C56.4361 20.4134 57.1262 19.7834 57.8485 19.1915Z" fill="#E0E0E0"/>
<path d="M15.7889 19.1787C16.5472 19.755 17.2624 20.3858 17.9289 21.0662C18.6486 21.6966 19.3196 22.3805 19.9363 23.112C19.178 22.5342 18.4627 21.9019 17.7963 21.2202C17.0752 20.5928 16.4041 19.9102 15.7889 19.1787Z" fill="#E0E0E0"/>
<path d="M15.9003 75.114C16.4812 74.3625 17.1179 73.6557 17.8049 72.9997C18.4401 72.2921 19.1284 71.634 19.8635 71.0309C19.2878 71.7816 18.6569 72.4883 17.9761 73.1452C17.3353 73.8534 16.6414 74.5116 15.9003 75.114Z" fill="#E0E0E0"/>
<path d="M57.7158 75.1868C57.6601 75.221 56.9668 74.0868 55.8925 72.867C54.8182 71.6472 53.791 70.804 53.8338 70.7527C54.0952 70.8838 54.336 71.0525 54.5486 71.2534C55.626 72.1591 56.5584 73.2243 57.3135 74.4121C57.4853 74.6489 57.6209 74.91 57.7158 75.1868Z" fill="#E0E0E0"/>
<path d="M198.01 18.4768H162.533V53.9537H198.01V18.4768Z" fill="#61118B"/>
<path d="M196.966 19.5168H163.577V52.9051H196.966V19.5168Z" fill="white"/>
<path d="M185.067 31.4195H175.48V41.0067H185.067V31.4195Z" fill="#E0E0E0"/>
<path d="M199.504 18.4853H198.01V53.9537H199.504V18.4853Z" fill="#440C61"/>
<path d="M163.98 116.776C163 124.629 165.512 136.6 167.802 143.56C170.092 150.519 169.604 158.21 169.604 166.394C169.604 174.577 174.513 189.797 174.513 189.797H168.285V195.022H191.316V189.809H187.751C188.705 186.587 192.262 174.337 192.827 169.668C193.482 164.266 193.803 155.668 193.803 155.668C193.803 155.668 196.135 142.978 196.118 134.829C196.118 125.691 194.791 110.433 194.791 110.433L193.567 95.8806L194.085 97.4684C194.902 100.055 196.484 102.334 198.622 104.004C199.025 104.35 199.49 104.617 199.992 104.792C201.447 105.125 202.786 104.12 203.963 100.319C205.14 96.5183 200.33 82.7709 200.33 82.7709L197.894 80.7893C197.606 79.8928 197.245 79.0211 196.816 78.1828C195.168 75.1097 190.396 75.0712 190.396 75.0712L189.309 75.0327L189.758 68.9636C184.81 68.6469 181.254 69.7298 178.955 72.0752L178.489 74.6432L172.694 75.9272C172.694 75.9272 168.559 76.3552 166.894 79.1714C165.229 81.9877 158.12 98.5941 158.052 100.768C157.983 102.943 165.371 111.712 165.371 111.712L165.435 111.61C164.722 113.259 164.233 114.996 163.98 116.776ZM179.76 185.05C180.085 176.212 179.76 161.322 179.76 161.322C179.76 161.322 180.085 156.575 180.252 154.448C180.419 152.321 181.408 128.267 181.408 128.267L183.334 155.441C183.334 155.441 181.729 166.71 181.237 171.217C180.809 175.219 181.1 187.19 181.177 189.809H180.321C179.855 188.268 179.665 186.657 179.76 185.05ZM166.65 98.868L171.102 90.736L172.715 100.302C171.029 102.122 169.519 104.096 168.204 106.2L166.65 98.868Z" fill="#EBEBEB"/>
<path d="M185.007 102.292C184.952 102.292 184.922 102.579 184.947 102.925C184.973 103.272 185.046 103.55 185.101 103.542C185.157 103.533 185.187 103.255 185.161 102.908C185.136 102.562 185.067 102.292 185.007 102.292Z" fill="#E0E0E0"/>
<path d="M181.399 128.623C181.426 128.463 181.435 128.301 181.425 128.139C181.425 127.831 181.425 127.381 181.395 126.829C181.338 125.388 181.195 123.952 180.967 122.528C180.754 121.096 180.373 119.694 179.833 118.351C179.665 117.946 179.47 117.553 179.251 117.174C179.177 117.031 179.087 116.897 178.981 116.776C178.947 116.776 179.302 117.379 179.692 118.406C180.186 119.752 180.543 121.144 180.757 122.562C181.035 124.218 181.155 125.738 181.245 126.842C181.284 127.36 181.314 127.792 181.339 128.126C181.342 128.293 181.362 128.46 181.399 128.623Z" fill="#E0E0E0"/>
<path d="M187.755 118.077C187.412 118.341 187.086 118.627 186.779 118.933C186.189 119.476 185.363 120.217 184.412 120.983C183.462 121.749 182.572 122.412 181.921 122.879C181.556 123.115 181.206 123.374 180.873 123.653C181.27 123.475 181.649 123.257 182.003 123.003C183.764 121.857 185.401 120.53 186.886 119.044C187.206 118.75 187.497 118.426 187.755 118.077Z" fill="#E0E0E0"/>
<path d="M172.835 100.225C172.779 100.266 172.728 100.315 172.685 100.37L172.257 100.824C171.911 101.218 171.401 101.796 170.815 102.536C170.228 103.276 169.531 104.15 168.808 105.168C168.019 106.271 167.304 107.425 166.668 108.622C165.509 110.797 164.692 113.137 164.245 115.56C164.116 116.294 164.025 117.034 163.971 117.777C163.971 118.021 163.945 118.205 163.937 118.385C163.928 118.454 163.928 118.525 163.937 118.595C163.96 118.527 163.975 118.456 163.98 118.385C164.001 118.222 164.027 118.025 164.057 117.786C164.1 117.259 164.228 116.502 164.391 115.586C164.89 113.196 165.729 110.89 166.882 108.738C167.511 107.553 168.216 106.409 168.992 105.314C169.693 104.291 170.374 103.401 170.956 102.66L172.343 100.914L172.719 100.439C172.801 100.289 172.844 100.229 172.835 100.225Z" fill="#E0E0E0"/>
<path d="M197.385 195.035H163.196V200.257H197.385V195.035Z" fill="#E0E0E0"/>
<path d="M173.563 85.951C173.62 85.8342 173.656 85.7081 173.67 85.5786C173.738 85.2363 173.788 84.8906 173.819 84.5428C173.917 83.3893 173.839 82.2276 173.588 81.0974C173.457 80.4716 173.259 79.8618 172.998 79.2784C172.783 78.8001 172.483 78.365 172.112 77.9944C171.86 77.7404 171.554 77.5459 171.217 77.4252C171.127 77.3921 171.034 77.3691 170.939 77.3567C170.875 77.3567 170.841 77.3567 170.841 77.3567C171.279 77.5181 171.676 77.7738 172.005 78.1057C172.348 78.4833 172.623 78.9178 172.818 79.3897C173.061 79.964 173.249 80.5602 173.379 81.1702C173.624 82.2839 173.722 83.425 173.67 84.5642C173.627 85.4074 173.528 85.9467 173.563 85.951Z" fill="#E0E0E0"/>
<path d="M196.384 98.44C196.388 98.3773 196.388 98.3144 196.384 98.2517C196.384 98.1147 196.384 97.9264 196.384 97.691C196.384 97.186 196.409 96.4669 196.426 95.551C196.448 93.6806 196.482 91.0014 196.525 87.7143L195.639 85.7541V85.7113H195.579C195.319 85.6632 195.069 85.5736 194.838 85.4459C194.59 85.3177 194.35 85.1748 194.119 85.0179C193.649 84.7012 193.195 84.316 192.72 83.9436L189.775 81.5939L189.745 81.5725H189.715C189.155 81.5468 188.573 81.5083 188.003 81.4484C187.715 81.4244 187.428 81.3772 187.147 81.3072C187.066 81.2686 187.087 81.3072 187.079 81.2601C187.087 81.2048 187.111 81.153 187.147 81.1103C187.232 80.9967 187.332 80.8946 187.443 80.8064L187.605 80.6737L187.404 80.6224C187.268 80.5944 187.143 80.5275 187.045 80.4298C186.963 80.3399 186.976 80.2286 187.045 80.1045C187.225 79.8308 187.44 79.5806 187.682 79.3598L187.712 79.3212C187.734 79.3212 187.798 79.2442 187.853 79.2014L188.033 79.0644L188.414 78.7948L189.202 78.2684L190.837 77.2112H190.777H190.832L193.507 77.3225L193.443 77.3011L200.265 82.8651L200.236 82.818C201.685 86.893 202.852 91.063 203.728 95.2985C203.97 96.5139 204.102 97.7487 204.122 98.9878C204.113 99.316 204.085 99.6433 204.036 99.968L203.985 100.216C203.985 100.272 203.985 100.302 203.985 100.302L204.01 100.22L204.079 99.9722C204.143 99.6477 204.182 99.3185 204.195 98.9878C204.206 97.7442 204.092 96.5025 203.856 95.2814C203.021 91.0166 201.877 86.8183 200.432 82.7196V82.6939H200.411L193.597 77.1299L193.572 77.1085H193.537L190.862 76.9929H190.772H190.742L189.108 78.0501L188.316 78.5808L187.931 78.8547C187.788 78.9489 187.659 79.0611 187.545 79.1886L187.575 79.1543C187.315 79.3878 187.087 79.6539 186.895 79.9461C186.834 80.0291 186.796 80.1264 186.783 80.2286C186.778 80.3379 186.815 80.4451 186.886 80.5282C187.015 80.6596 187.181 80.7491 187.361 80.785L187.318 80.601C187.192 80.7039 187.079 80.8217 186.98 80.9519C186.921 81.027 186.883 81.1176 186.873 81.213C186.87 81.2452 186.874 81.2778 186.885 81.3083C186.896 81.3387 186.914 81.3662 186.938 81.3885C186.978 81.4253 187.026 81.4517 187.079 81.4655C187.377 81.5432 187.683 81.5933 187.99 81.6153C188.581 81.6752 189.163 81.7095 189.728 81.7352L189.668 81.7138L192.626 84.0549C193.101 84.4273 193.554 84.8082 194.038 85.1335C194.276 85.2914 194.523 85.4343 194.779 85.5615C195.034 85.7036 195.312 85.7993 195.6 85.844L195.519 85.7926C195.836 86.4774 196.135 87.1365 196.418 87.7486V87.74C196.418 91.027 196.396 93.7063 196.388 95.5767C196.388 96.4969 196.388 97.2159 196.388 97.7167C196.388 97.9521 196.388 98.1447 196.388 98.2774C196.384 98.3315 196.382 98.3857 196.384 98.44Z" fill="#E0E0E0"/>
<path d="M192.908 80.5111C192.908 80.4811 192.596 80.3698 192.133 80.0831C191.858 79.9002 191.572 79.733 191.277 79.5823C190.906 79.3872 190.483 79.311 190.066 79.364C189.66 79.4324 189.271 79.5777 188.919 79.792C188.598 79.9761 188.329 80.1687 188.097 80.3142C187.635 80.6181 187.318 80.7422 187.331 80.7722C187.638 80.7282 187.93 80.6156 188.187 80.4426C188.675 80.1901 189.3 79.6979 190.109 79.5866C190.486 79.5366 190.869 79.6007 191.209 79.7706C191.534 79.9162 191.812 80.0916 192.065 80.2243C192.318 80.3873 192.608 80.4858 192.908 80.5111Z" fill="#E0E0E0"/>
<path d="M193.7 79.2656C193.481 78.9695 193.222 78.7059 192.93 78.4824C192.624 78.2203 192.283 78.004 191.915 77.8404C191.452 77.642 190.942 77.5754 190.443 77.6478C189.558 77.8079 188.736 78.2143 188.072 78.8205C187.779 79.0413 187.516 79.2987 187.289 79.5866C187.597 79.3937 187.89 79.1777 188.166 78.9403C188.831 78.3904 189.625 78.0178 190.473 77.8575C190.936 77.7915 191.408 77.8475 191.843 78.0201C192.198 78.1725 192.532 78.368 192.84 78.6022C193.113 78.8401 193.4 79.0617 193.7 79.2656Z" fill="#E0E0E0"/>
<path d="M194.539 85.4031C194.492 85.4031 194.667 86.0836 194.659 87.1879C194.647 87.8346 194.59 88.4796 194.488 89.1182C194.372 89.8372 194.209 90.629 194.025 91.455C193.841 92.2811 193.683 93.0814 193.572 93.809C193.473 94.4563 193.426 95.1103 193.43 95.765C193.428 96.0168 193.442 96.2684 193.473 96.5183C193.485 96.7071 193.512 96.8946 193.554 97.079C193.574 97.2403 193.615 97.3985 193.674 97.5498C193.721 97.5498 193.559 96.8692 193.58 95.765C193.596 95.1193 193.659 94.4755 193.768 93.839C193.888 93.1157 194.055 92.3282 194.235 91.4978C194.415 90.6675 194.573 89.8714 194.663 89.1438C194.762 88.4968 194.805 87.8424 194.791 87.1879C194.788 86.9432 194.771 86.6988 194.74 86.456C194.724 86.2672 194.694 86.0798 194.65 85.8953C194.631 85.7277 194.593 85.5627 194.539 85.4031Z" fill="#E0E0E0"/>
<path d="M166.492 99.2018C166.492 99.2018 166.398 98.9664 166.12 98.6797C165.747 98.3139 165.301 98.0322 164.81 97.8536C164.318 97.6725 163.792 97.6024 163.269 97.6482C163.053 97.6518 162.84 97.7061 162.649 97.8066C163.353 97.7616 164.059 97.8458 164.733 98.0548C165.386 98.3244 165.982 98.7134 166.492 99.2018Z" fill="#E0E0E0"/>
<path d="M185.705 85.4031C185.662 85.4031 185.624 85.9638 185.354 86.8198C185.192 87.3201 184.981 87.8032 184.725 88.2622C184.1 89.3873 183.221 90.3503 182.157 91.0741C181.721 91.3676 181.258 91.6184 180.774 91.8231C179.94 92.1655 179.383 92.2511 179.392 92.2939C179.525 92.2979 179.657 92.2835 179.786 92.2511C179.94 92.2298 180.091 92.1955 180.239 92.1484C180.439 92.0998 180.634 92.0383 180.826 91.9644C181.33 91.7772 181.813 91.5346 182.264 91.241C182.814 90.8721 183.319 90.4413 183.77 89.957C184.212 89.467 184.594 88.9269 184.909 88.3478C185.164 87.8753 185.365 87.3757 185.508 86.8583C185.567 86.6605 185.613 86.4589 185.645 86.2548C185.678 86.1025 185.699 85.948 185.709 85.7926C185.723 85.6631 185.722 85.5323 185.705 85.4031Z" fill="#E0E0E0"/>
<path d="M186.565 196.439H174.384V198.673H186.565V196.439Z" fill="#F5F5F5"/>
<path d="M189.78 68.9465C189.78 68.9465 185.341 75.4778 178.977 72.0581C178.977 72.0581 181.956 68.2831 189.78 68.9465Z" fill="#E0E0E0"/>
<path d="M179.135 71.904C179.681 72.143 180.238 72.3544 180.804 72.5374C182.186 72.9332 183.651 72.9332 185.033 72.5374C186.408 72.1206 187.651 71.3537 188.641 70.3118C189.403 69.5115 189.741 68.9037 189.779 68.9294C189.724 69.0811 189.649 69.225 189.557 69.3574C189.323 69.7336 189.056 70.0888 188.761 70.4188C187.779 71.5202 186.511 72.3277 185.097 72.7514C183.677 73.159 182.169 73.1367 180.762 72.6872C180.338 72.5541 179.929 72.3777 179.542 72.1608C179.394 72.0971 179.256 72.0105 179.135 71.904Z" fill="#E0E0E0"/>
<path d="M166.659 26.2407H55.5629C52.8327 26.2407 50.6195 28.4539 50.6195 31.1841V194.92C50.6195 197.65 52.8327 199.863 55.5629 199.863H166.659C169.389 199.863 171.602 197.65 171.602 194.92V31.1841C171.602 28.4539 169.389 26.2407 166.659 26.2407Z" fill="#263238"/>
<path d="M167.562 38.627H54.2062V183.625H167.562V38.627Z" fill="white"/>
<path d="M116.151 191.534C116.112 191.124 116.046 190.716 115.954 190.314C115.663 189.226 115.017 188.267 114.118 187.588C113.456 187.09 112.681 186.766 111.862 186.645C111.044 186.524 110.208 186.61 109.431 186.895C108.982 187.055 108.561 187.283 108.181 187.571C107.779 187.861 107.427 188.215 107.141 188.62C106.518 189.464 106.182 190.485 106.182 191.534C106.182 192.583 106.518 193.605 107.141 194.449C107.428 194.854 107.78 195.21 108.181 195.502C108.561 195.788 108.982 196.015 109.431 196.174C110.208 196.459 111.044 196.545 111.863 196.424C112.681 196.303 113.457 195.978 114.118 195.48C115.017 194.802 115.663 193.842 115.954 192.754C116.046 192.352 116.112 191.945 116.151 191.534C116.161 191.641 116.161 191.749 116.151 191.855C116.153 191.987 116.145 192.119 116.125 192.249C116.106 192.427 116.075 192.603 116.031 192.775C115.764 193.899 115.118 194.896 114.203 195.6C113.525 196.125 112.725 196.47 111.878 196.602C111.031 196.735 110.164 196.651 109.358 196.358C108.402 196.013 107.569 195.392 106.966 194.573C106.315 193.693 105.964 192.628 105.964 191.534C105.964 190.44 106.315 189.375 106.966 188.495C107.268 188.075 107.637 187.707 108.057 187.404C108.449 187.111 108.881 186.877 109.341 186.711C110.013 186.467 110.729 186.367 111.442 186.419C112.155 186.47 112.849 186.672 113.478 187.01C114.108 187.348 114.659 187.815 115.096 188.381C115.533 188.947 115.846 189.598 116.014 190.293C116.058 190.467 116.089 190.645 116.108 190.824C116.128 190.953 116.136 191.083 116.133 191.213C116.149 191.319 116.155 191.427 116.151 191.534Z" fill="#455A64"/>
<path d="M128.811 31.2397H93.4152C93.1268 31.2397 92.8931 31.4735 92.8931 31.7619V32.635C92.8931 32.9234 93.1268 33.1572 93.4152 33.1572H128.811C129.099 33.1572 129.333 32.9234 129.333 32.635V31.7619C129.333 31.4735 129.099 31.2397 128.811 31.2397Z" fill="#455A64"/>
<path d="M167.562 38.627H54.2062V49.327H167.562V38.627Z" fill="#E0E0E0"/>
<path d="M61.3238 44.1653C61.3096 44.4216 61.2206 44.6681 61.0678 44.8744C60.9151 45.0807 60.7053 45.2378 60.4643 45.3262C60.2233 45.4146 59.9617 45.4304 59.7118 45.3718C59.4619 45.3132 59.2346 45.1826 59.058 44.9963C58.8815 44.81 58.7634 44.576 58.7183 44.3233C58.6732 44.0706 58.7031 43.8102 58.8044 43.5743C58.9056 43.3385 59.0737 43.1374 59.2879 42.996C59.5022 42.8546 59.7531 42.779 60.0098 42.7786C60.3678 42.7887 60.7072 42.9403 60.9535 43.2003C61.1998 43.4603 61.333 43.8073 61.3238 44.1653Z" fill="#263238"/>
<path d="M66.2072 44.1653C66.193 44.4216 66.104 44.6681 65.9513 44.8744C65.7985 45.0807 65.5887 45.2378 65.3477 45.3262C65.1067 45.4146 64.8451 45.4304 64.5952 45.3718C64.3453 45.3132 64.118 45.1826 63.9415 44.9963C63.7649 44.81 63.6468 44.576 63.6017 44.3233C63.5566 44.0706 63.5866 43.8102 63.6878 43.5743C63.789 43.3385 63.9571 43.1374 64.1714 42.996C64.3856 42.8546 64.6366 42.779 64.8932 42.7786C65.2512 42.7887 65.5906 42.9403 65.8369 43.2003C66.0833 43.4603 66.2164 43.8073 66.2072 44.1653Z" fill="#263238"/>
<path d="M71.0865 44.1653C71.0764 44.4224 70.9911 44.6709 70.8411 44.8799C70.6912 45.0889 70.4831 45.2494 70.2428 45.3412C70.0025 45.4331 69.7405 45.4524 69.4893 45.3968C69.2381 45.3411 69.0088 45.2129 68.8298 45.0281C68.6508 44.8433 68.53 44.61 68.4823 44.3572C68.4347 44.1044 68.4623 43.8431 68.5618 43.6058C68.6613 43.3686 68.8282 43.1657 69.0419 43.0225C69.2557 42.8792 69.5067 42.8019 69.764 42.8C70.1197 42.8079 70.458 42.9556 70.7055 43.2111C70.9531 43.4667 71.09 43.8095 71.0865 44.1653Z" fill="#263238"/>
<path d="M163.222 149.351H60.1896V179.272H163.222V149.351Z" fill="#F5F5F5"/>
<path d="M83.8879 155.762C83.8879 155.822 79.8861 155.873 74.9513 155.873C70.0165 155.873 66.0104 155.822 66.0104 155.762C66.0104 155.702 70.0122 155.651 74.9513 155.651C79.8904 155.651 83.8879 155.702 83.8879 155.762Z" fill="#E0E0E0"/>
<path d="M157.14 162.756C157.14 162.82 136.22 162.867 110.415 162.867C84.6113 162.867 63.6864 162.82 63.6864 162.756C63.6864 162.691 84.6028 162.64 110.424 162.64C136.245 162.64 157.14 162.696 157.14 162.756Z" fill="#E0E0E0"/>
<path d="M159.083 166.834C159.083 166.899 137.944 166.95 111.875 166.95C85.8054 166.95 64.658 166.899 64.658 166.834C64.658 166.77 85.7926 166.723 111.875 166.723C137.957 166.723 159.083 166.774 159.083 166.834Z" fill="#E0E0E0"/>
<path d="M159.006 171.363C159.006 171.423 137.563 171.474 111.117 171.474C84.6712 171.474 63.2198 171.423 63.2198 171.363C63.2198 171.303 84.6584 171.251 111.117 171.251C137.576 171.251 159.006 171.303 159.006 171.363Z" fill="#E0E0E0"/>
<path d="M67.38 103.533C72.2328 103.533 76.1668 99.5992 76.1668 94.7464C76.1668 89.8935 72.2328 85.9595 67.38 85.9595C62.5271 85.9595 58.5931 89.8935 58.5931 94.7464C58.5931 99.5992 62.5271 103.533 67.38 103.533Z" fill="#EBEBEB"/>
<path d="M68.5142 98.9151C68.402 98.9146 68.2944 98.87 68.2146 98.791L64.5766 95.153C64.5362 95.1133 64.504 95.0661 64.482 95.0139C64.4599 94.9617 64.4485 94.9057 64.4482 94.8491C64.4485 94.7925 64.4599 94.7364 64.482 94.6843C64.504 94.6321 64.5362 94.5848 64.5766 94.5452L68.2146 90.9072C68.2948 90.8275 68.4033 90.7827 68.5164 90.7827C68.6295 90.7827 68.7379 90.8275 68.8181 90.9072C68.8582 90.947 68.8901 90.9943 68.9118 91.0465C68.9335 91.0986 68.9447 91.1546 68.9447 91.2111C68.9447 91.2676 68.9335 91.3235 68.9118 91.3757C68.8901 91.4278 68.8582 91.4752 68.8181 91.515L65.484 94.8491L68.8181 98.1832C68.8785 98.2431 68.9196 98.3196 68.9364 98.4029C68.9531 98.4863 68.9446 98.5727 68.912 98.6512C68.8794 98.7297 68.8242 98.7968 68.7533 98.8437C68.6825 98.8907 68.5993 98.9156 68.5142 98.9151Z" fill="#263238"/>
<path d="M155.899 103.533C160.752 103.533 164.686 99.5992 164.686 94.7464C164.686 89.8935 160.752 85.9595 155.899 85.9595C151.046 85.9595 147.112 89.8935 147.112 94.7464C147.112 99.5992 151.046 103.533 155.899 103.533Z" fill="#EBEBEB"/>
<path d="M154.765 98.7096C154.652 98.7092 154.545 98.6646 154.465 98.5855C154.425 98.5457 154.393 98.4984 154.371 98.4462C154.35 98.3941 154.339 98.3381 154.339 98.2816C154.339 98.2251 154.35 98.1692 154.371 98.117C154.393 98.0649 154.425 98.0175 154.465 97.9778L157.799 94.6436L154.465 91.3095C154.385 91.2295 154.339 91.1207 154.339 91.0071C154.338 90.8936 154.383 90.7845 154.463 90.7039C154.543 90.6233 154.652 90.5778 154.765 90.5774C154.879 90.577 154.988 90.6217 155.069 90.7018L158.707 94.3398C158.747 94.3795 158.779 94.4269 158.8 94.479C158.822 94.5312 158.833 94.5871 158.833 94.6436C158.833 94.7001 158.822 94.7561 158.8 94.8082C158.779 94.8604 158.747 94.9077 158.707 94.9475L155.069 98.5855C155.029 98.6252 154.981 98.6566 154.929 98.6779C154.877 98.6992 154.821 98.71 154.765 98.7096Z" fill="#263238"/>
<path d="M139.361 57.7115H88.4204V142.036H139.361V57.7115Z" fill="#263238"/>
<path d="M137.666 57.7115H86.7256V142.036H137.666V57.7115Z" fill="#455A64"/>
<path d="M135.5 59.4235H88.8955V140.328H135.5V59.4235Z" fill="#FAFAFA"/>
<path d="M126.427 69.9352H97.7679V129.812H126.427V69.9352Z" fill="#61118B"/>
<path d="M97.7679 108.622C97.7037 103.032 102.72 97.584 108.284 96.7879C110.925 96.4156 113.728 96.942 116.198 95.9319C120.602 94.1258 122.006 88.275 126.44 86.5373L126.641 129.817H97.7679V108.622Z" fill="#61118B"/>
<g opacity="0.3">
<path d="M97.7679 108.622C97.7037 103.032 102.72 97.584 108.284 96.7879C110.925 96.4156 113.728 96.942 116.198 95.9319C120.602 94.1258 122.006 88.275 126.44 86.5373L126.641 129.817H97.7679V108.622Z" fill="black"/>
</g>
<path d="M127.933 62.2398C127.976 62.2868 119.951 70.192 110.013 79.899C100.075 89.6061 91.9772 97.447 91.9344 97.4042C91.8916 97.3614 99.9123 89.452 109.855 79.7407C119.797 70.0294 127.891 62.197 127.933 62.2398Z" fill="white"/>
<path d="M88.5959 107.27C88.6555 107.178 88.7213 107.091 88.7928 107.009L89.3877 106.285C89.9099 105.66 90.6717 104.766 91.6262 103.67C93.5351 101.479 96.2186 98.4871 99.2703 95.2642C102.322 92.0414 105.164 89.2038 107.248 87.1793C108.293 86.165 109.144 85.3518 109.739 84.7996L110.428 84.1662C110.507 84.0896 110.591 84.0195 110.681 83.9565C110.613 84.0434 110.539 84.125 110.458 84.2004L109.799 84.8638L107.359 87.2906C105.301 89.3407 102.48 92.1998 99.4329 95.4226C96.3856 98.6454 93.6849 101.611 91.7289 103.777L89.4391 106.345L88.8099 107.039C88.7469 107.123 88.6752 107.2 88.5959 107.27Z" fill="white"/>
<path d="M127.625 92.5507C127.672 92.5935 125.057 95.6494 121.762 99.3987C118.466 103.148 115.77 106.123 115.731 106.084C115.693 106.046 118.299 102.985 121.595 99.2361C124.89 95.4868 127.578 92.5122 127.625 92.5507Z" fill="white"/>
<path d="M159.088 57.7115H145.19V71.6087H159.088V57.7115Z" fill="#F5F5F5"/>
<path d="M152.368 62.6378C150.779 62.7862 149.18 62.7862 147.591 62.6378C149.18 62.4894 150.779 62.4894 152.368 62.6378Z" fill="#E0E0E0"/>
<path d="M157.846 64.5681C157.846 64.6323 155.527 64.6794 152.668 64.6794C149.809 64.6794 147.484 64.6323 147.484 64.5681C147.484 64.5039 149.804 64.4568 152.668 64.4568C155.531 64.4568 157.846 64.5082 157.846 64.5681Z" fill="#E0E0E0"/>
<path d="M152.462 66.3999C151.009 66.5483 149.545 66.5483 148.092 66.3999C149.545 66.2458 151.01 66.2458 152.462 66.3999Z" fill="#E0E0E0"/>
<path d="M65.4241 136.399C65.4241 136.399 100.152 179.85 161.377 139.186V144.322C161.377 144.322 112.209 185.461 65.4241 142.301V136.399Z" fill="#61118B"/>
<path d="M66.2287 197.445V136.763C66.8174 136.475 67.2889 135.993 67.5638 135.398C67.8387 134.803 67.9002 134.132 67.738 133.497C67.5758 132.862 67.1998 132.302 66.6733 131.912C66.1468 131.522 65.5019 131.325 64.8473 131.355C64.1926 131.385 63.5682 131.639 63.0791 132.075C62.59 132.511 62.2661 133.103 62.162 133.75C62.0578 134.397 62.1798 135.06 62.5074 135.627C62.8349 136.195 63.348 136.632 63.9603 136.866V197.445H56.7656V199.786H73.1537V197.445H66.2287Z" fill="#F5F5F5"/>
<path d="M66.2287 197.445H66.6867H68.0178L73.1538 197.419H73.1966V197.462C73.1966 198.181 73.1966 198.964 73.1966 199.803V199.85H73.1495L56.7614 199.88H56.6843V197.381H63.9603L63.8704 197.466C63.8704 183.342 63.8704 165.675 63.8704 146.534C63.8704 143.264 63.8704 140.037 63.8704 136.874L63.9389 136.973C63.2742 136.711 62.7247 136.221 62.3896 135.59C62.0445 134.965 61.928 134.238 62.06 133.536C62.1962 132.85 62.5651 132.231 63.1043 131.785C63.6358 131.346 64.3063 131.109 64.9962 131.118C65.686 131.126 66.3504 131.38 66.8707 131.833C67.3832 132.277 67.7327 132.879 67.8637 133.545C67.9897 134.2 67.9011 134.878 67.6112 135.479C67.3209 136.07 66.8462 136.551 66.2587 136.849L66.3143 136.755C66.3143 154.354 66.2758 169.509 66.2672 180.274C66.2672 185.658 66.2416 189.942 66.2373 192.887C66.2373 194.355 66.2373 195.489 66.2373 196.259C66.2373 196.645 66.2373 196.936 66.2373 197.137C66.2373 197.338 66.2373 197.436 66.2373 197.436C66.2373 197.436 66.2373 197.342 66.2373 197.15C66.2373 196.957 66.2373 196.662 66.2373 196.294C66.2373 195.528 66.2373 194.402 66.2373 192.942C66.2373 190.002 66.2373 185.726 66.2073 180.351C66.2073 169.569 66.1774 154.392 66.1602 136.763V136.699L66.2159 136.669C66.7653 136.391 67.2076 135.94 67.4742 135.385C67.7459 134.826 67.8286 134.193 67.7096 133.583C67.5864 132.966 67.2611 132.407 66.7851 131.995C66.3009 131.577 65.6844 131.343 65.0446 131.335C64.4047 131.328 63.7827 131.546 63.2884 131.952C62.7845 132.37 62.4406 132.949 62.3149 133.591C62.1893 134.233 62.2898 134.898 62.5993 135.475C62.9107 136.059 63.4186 136.513 64.0331 136.759L64.1016 136.785V146.517C64.1016 165.645 64.1016 183.325 64.0802 197.449V197.535H56.8042L56.8855 197.454C56.8855 198.275 56.8855 199.08 56.8855 199.795L56.8084 199.718L73.1966 199.748L73.1452 199.795C73.1452 198.939 73.1452 198.173 73.1452 197.454L73.188 197.496L68.0263 197.471H66.7038L66.2287 197.445Z" fill="#263238"/>
<path d="M66.4597 136.626C66.1148 136.958 65.6542 137.142 65.1757 137.14C64.6968 137.207 64.2105 137.086 63.819 136.802C64.2614 136.879 64.7094 136.921 65.1586 136.926C65.5997 136.861 66.0348 136.761 66.4597 136.626Z" fill="#263238"/>
<path d="M67.196 197.441C66.5743 197.548 65.9425 197.584 65.3128 197.548C64.683 197.584 64.0512 197.548 63.4296 197.441C64.0512 197.334 64.683 197.298 65.3128 197.334C65.9425 197.298 66.5743 197.334 67.196 197.441Z" fill="#263238"/>
<path d="M162.704 197.445V136.763C163.293 136.475 163.764 135.993 164.039 135.398C164.314 134.803 164.376 134.132 164.214 133.497C164.051 132.862 163.675 132.302 163.149 131.912C162.622 131.522 161.977 131.325 161.323 131.355C160.668 131.385 160.044 131.639 159.555 132.075C159.065 132.511 158.742 133.103 158.637 133.75C158.533 134.397 158.655 135.06 158.983 135.627C159.31 136.195 159.824 136.632 160.436 136.866V197.445H153.224V199.786H169.612V197.445H162.704Z" fill="#F5F5F5"/>
<path d="M162.704 197.445H163.162H164.493L169.629 197.419H169.672V197.462C169.672 198.181 169.672 198.964 169.672 199.803V199.85H169.625L153.224 199.876H153.147V197.376H160.423L160.333 197.462C160.333 183.338 160.333 165.67 160.333 146.53V136.866L160.402 136.964C159.737 136.703 159.187 136.213 158.852 135.582C158.524 134.958 158.42 134.24 158.557 133.549C158.693 132.863 159.062 132.244 159.601 131.798C160.133 131.358 160.803 131.122 161.493 131.13C162.183 131.139 162.847 131.392 163.368 131.845C163.88 132.289 164.23 132.892 164.361 133.557C164.487 134.213 164.398 134.891 164.108 135.492C163.818 136.083 163.343 136.564 162.756 136.862L162.811 136.767C162.79 154.367 162.773 169.522 162.764 180.286C162.764 185.671 162.738 189.955 162.734 192.9C162.734 194.368 162.734 195.502 162.734 196.272C162.734 196.657 162.734 196.948 162.734 197.15C162.734 197.351 162.734 197.449 162.734 197.449C162.734 197.449 162.734 197.355 162.734 197.162C162.734 196.97 162.734 196.675 162.734 196.306C162.734 195.54 162.734 194.415 162.734 192.955C162.734 190.015 162.734 185.739 162.704 180.363C162.704 169.582 162.674 154.405 162.657 136.776V136.712L162.713 136.682C163.262 136.404 163.705 135.953 163.971 135.398C164.243 134.839 164.325 134.206 164.206 133.596C164.083 132.979 163.758 132.42 163.282 132.008C162.798 131.59 162.181 131.356 161.541 131.348C160.902 131.34 160.28 131.559 159.785 131.965C159.283 132.384 158.941 132.963 158.815 133.604C158.69 134.246 158.789 134.911 159.096 135.488C159.408 136.071 159.915 136.526 160.53 136.772L160.598 136.797V146.53C160.598 165.657 160.598 183.338 160.577 197.462V197.548H153.224L153.305 197.466C153.305 198.288 153.305 199.093 153.305 199.808L153.228 199.73L169.616 199.76L169.565 199.808C169.565 198.952 169.565 198.185 169.565 197.466L169.608 197.509L164.45 197.483H163.124L162.704 197.445Z" fill="#263238"/>
<path d="M162.935 136.626C162.59 136.958 162.13 137.142 161.651 137.14C161.172 137.207 160.686 137.086 160.295 136.802C161.175 137.026 162.105 136.965 162.948 136.626H162.935Z" fill="#263238"/>
<path d="M163.663 197.441C162.411 197.583 161.148 197.583 159.896 197.441C161.148 197.298 162.411 197.298 163.663 197.441Z" fill="#263238"/>
<path d="M88.9298 153.087C88.7388 153.056 88.5511 153.007 88.3691 152.942C88.0096 152.839 87.4917 152.668 86.8626 152.445C83.5757 151.267 80.4384 149.707 77.5151 147.797C76.9544 147.429 76.5093 147.121 76.2097 146.898C76.047 146.792 75.8951 146.67 75.756 146.534C75.9318 146.615 76.0995 146.713 76.2567 146.825L77.5964 147.681C78.7306 148.383 80.327 149.308 82.1503 150.215C83.9736 151.123 85.6727 151.833 86.9139 152.317L88.3948 152.877C88.5797 152.929 88.7589 153 88.9298 153.087Z" fill="white"/>
<path d="M199.17 199.876C199.17 199.936 157.898 199.987 107.004 199.987C56.1108 199.987 14.8302 199.923 14.8302 199.876C14.8302 199.829 56.0894 199.765 107.004 199.765C157.919 199.765 199.17 199.803 199.17 199.876Z" fill="#263238"/>
<path d="M35.7636 186.647L34.7236 195.125C34.7236 195.125 42.9883 199.029 42.9497 200.612L26.4418 199.187L27.5203 185.919L35.7636 186.647Z" fill="#61118B"/>
<g opacity="0.3">
<path d="M35.7636 186.647L34.7236 195.125C34.7236 195.125 42.9883 199.029 42.9497 200.612L26.4418 199.187L27.5203 185.919L35.7636 186.647Z" fill="black"/>
</g>
<g opacity="0.6">
<path d="M29.6817 193.965C29.5186 193.999 29.3737 194.092 29.275 194.227C29.1762 194.361 29.1306 194.527 29.1467 194.693C29.1752 194.857 29.2656 195.004 29.3994 195.104C29.5333 195.204 29.7002 195.248 29.8658 195.228C30.0384 195.191 30.1912 195.091 30.2948 194.948C30.3983 194.805 30.4452 194.629 30.4265 194.453C30.3784 194.286 30.2674 194.143 30.1166 194.055C29.9659 193.968 29.7871 193.941 29.6175 193.982" fill="white"/>
</g>
<g opacity="0.6">
<path d="M26.4418 199.187L26.6001 197.852L42.3719 199.722C42.3719 199.722 43.0781 200.103 42.9497 200.612L26.4418 199.187Z" fill="white"/>
</g>
<path d="M34.9975 195.061C34.9975 195.142 34.5695 195.142 34.1415 195.369C33.7135 195.596 33.4824 195.913 33.4097 195.874C33.3369 195.836 33.4995 195.382 34.0131 195.121C34.5267 194.86 35.0232 194.988 34.9975 195.061Z" fill="#263238"/>
<path d="M36.6668 195.93C36.6668 196.007 36.3201 196.114 36.0162 196.431C35.7123 196.747 35.5882 197.103 35.5197 197.094C35.4513 197.085 35.4299 196.623 35.8151 196.238C36.2003 195.853 36.6711 195.853 36.6668 195.93Z" fill="#263238"/>
<path d="M37.4713 198.087C37.3986 198.087 37.3215 197.685 37.5655 197.261C37.8094 196.837 38.2032 196.696 38.2289 196.764C38.2546 196.833 38.0063 197.051 37.8009 197.402C37.5954 197.753 37.5526 198.087 37.4713 198.087Z" fill="#263238"/>
<path d="M35.0189 193.105C34.9804 193.174 34.6209 193.032 34.1629 193.024C33.7049 193.015 33.3369 193.126 33.3069 193.054C33.2769 192.981 33.6407 192.724 34.1629 192.741C34.6851 192.758 35.066 193.028 35.0189 193.105Z" fill="#263238"/>
<path d="M35.1988 191.389C34.9219 191.44 34.6364 191.414 34.3727 191.316C34.0749 191.236 33.7876 191.121 33.5167 190.974C33.3667 190.886 33.2236 190.788 33.0887 190.678C32.9989 190.621 32.9193 190.548 32.8533 190.464C32.8061 190.403 32.7805 190.328 32.7805 190.25C32.7805 190.173 32.8061 190.098 32.8533 190.036C32.8975 189.983 32.9542 189.941 33.0183 189.914C33.0824 189.887 33.1521 189.876 33.2214 189.882C33.3267 189.891 33.4304 189.914 33.5296 189.951C33.7023 190.011 33.8698 190.085 34.0303 190.173C34.2975 190.324 34.54 190.514 34.7494 190.738C34.9594 190.929 35.1083 191.178 35.1774 191.453C35.1346 191.479 34.9719 191.209 34.6081 190.884C34.3958 190.694 34.1599 190.533 33.9062 190.404C33.758 190.328 33.6033 190.265 33.444 190.216C33.2728 190.152 33.123 190.139 33.0716 190.216C33.0202 190.293 33.0716 190.259 33.0716 190.31C33.1204 190.371 33.1781 190.425 33.2428 190.469C33.3781 190.575 33.5211 190.671 33.6708 190.755C33.9141 190.907 34.1722 191.033 34.4412 191.132C34.6988 191.202 34.9518 191.288 35.1988 191.389Z" fill="#263238"/>
<path d="M35.0959 191.496C34.9609 191.246 34.9099 190.959 34.9504 190.678C34.9616 190.372 35.0253 190.069 35.1387 189.784C35.2065 189.614 35.2926 189.452 35.3955 189.3C35.4483 189.195 35.5279 189.105 35.6263 189.039C35.7246 188.974 35.8384 188.935 35.9562 188.928C36.0301 188.934 36.1004 188.963 36.1583 189.009C36.2162 189.056 36.259 189.118 36.2815 189.189C36.3159 189.288 36.3361 189.392 36.3414 189.497C36.3522 189.685 36.3363 189.874 36.2943 190.058C36.222 190.363 36.0749 190.645 35.8663 190.879C35.5068 191.277 35.1601 191.346 35.1559 191.307C35.1516 191.269 35.4298 191.132 35.7123 190.742C35.9757 190.388 36.1019 189.95 36.0675 189.51C36.0675 189.33 36.0033 189.185 35.9348 189.197C35.8663 189.21 35.7037 189.309 35.6224 189.441C35.5275 189.576 35.4458 189.719 35.3784 189.869C35.2623 190.126 35.1845 190.399 35.1473 190.678C35.0703 191.179 35.1302 191.487 35.0959 191.496Z" fill="#263238"/>
<path d="M32.0999 186.972L31.8474 195.51C31.8474 195.51 40.4417 198.631 40.5487 200.218L23.9679 200.073L23.8053 187.006L32.0999 186.972Z" fill="#61118B"/>
<g opacity="0.6">
<path d="M26.6987 194.826C26.5406 194.875 26.4063 194.981 26.3211 195.123C26.2359 195.265 26.2058 195.433 26.2364 195.596C26.2798 195.757 26.3836 195.896 26.5262 195.982C26.6688 196.069 26.8394 196.098 27.0025 196.063C27.171 196.009 27.3137 195.895 27.403 195.742C27.4924 195.59 27.522 195.41 27.4862 195.236C27.4236 195.072 27.2989 194.938 27.1387 194.864C26.9786 194.791 26.796 194.783 26.6302 194.843" fill="white"/>
</g>
<g opacity="0.6">
<path d="M23.968 200.073L23.998 198.981L39.8725 199.375C39.8725 199.375 40.6129 199.692 40.5316 200.231L23.968 200.073Z" fill="white"/>
</g>
<path d="M32.1 195.425C32.1 195.506 31.6934 195.545 31.2954 195.806C30.8973 196.067 30.6919 196.409 30.6149 196.379C30.5378 196.349 30.6577 195.878 31.1456 195.57C31.6335 195.262 32.1 195.348 32.1 195.425Z" fill="#263238"/>
<path d="M33.8376 196.131C33.8376 196.208 33.5081 196.349 33.2341 196.692C32.9602 197.034 32.8875 197.398 32.8061 197.398C32.7248 197.398 32.6692 196.936 33.0159 196.516C33.3625 196.097 33.8376 196.054 33.8376 196.131Z" fill="#263238"/>
<path d="M34.8391 198.203C34.7664 198.224 34.6508 197.817 34.8391 197.372C35.0274 196.927 35.4212 196.752 35.4554 196.816C35.4897 196.88 35.2586 197.124 35.0959 197.492C34.9333 197.86 34.9204 198.194 34.8391 198.203Z" fill="#263238"/>
<path d="M31.9373 193.456C31.903 193.529 31.5093 193.417 31.0813 193.456C30.6533 193.495 30.2681 193.64 30.2253 193.567C30.1825 193.495 30.5249 193.208 31.0813 193.178C31.6377 193.148 31.9758 193.409 31.9373 193.456Z" fill="#263238"/>
<g opacity="0.3">
<path d="M32.0272 188.662L31.9844 190.186L23.8395 190.165L23.8181 188.795L32.0272 188.662Z" fill="black"/>
</g>
<path d="M31.9544 191.744C31.6829 191.82 31.3957 191.82 31.1241 191.744C30.8295 191.691 30.5422 191.603 30.2681 191.483C30.1028 191.411 29.9427 191.328 29.7887 191.235C29.6952 191.184 29.61 191.119 29.5362 191.042C29.4839 190.985 29.4519 190.912 29.4449 190.835C29.438 190.757 29.4565 190.68 29.4977 190.614C29.5382 190.557 29.5914 190.511 29.6531 190.478C29.7148 190.445 29.7832 190.427 29.8529 190.426C29.9572 190.425 30.061 190.44 30.1611 190.469C30.3394 190.509 30.5129 190.568 30.679 190.644C30.9603 190.768 31.2203 190.935 31.4494 191.141C31.8346 191.491 31.9673 191.795 31.9416 191.808C31.9159 191.821 31.7147 191.586 31.321 191.295C31.0938 191.12 30.8449 190.977 30.5805 190.867C30.4248 190.807 30.2645 190.76 30.1012 190.725C29.9257 190.678 29.7759 190.678 29.7331 190.76C29.6903 190.841 29.7331 190.798 29.7331 190.849C29.7878 190.905 29.8497 190.952 29.9171 190.991C30.0548 191.082 30.1977 191.165 30.3451 191.239C30.6035 191.365 30.8729 191.466 31.1498 191.543C31.4224 191.591 31.6912 191.658 31.9544 191.744Z" fill="#263238"/>
<path d="M31.8517 191.864C31.8217 191.864 31.6591 191.59 31.6248 191.063C31.6096 190.757 31.6458 190.45 31.7318 190.156C31.7852 189.981 31.8554 189.812 31.9416 189.651C31.9842 189.54 32.0553 189.442 32.1476 189.367C32.24 189.292 32.3505 189.242 32.468 189.223C32.5419 189.224 32.6138 189.247 32.6753 189.288C32.7368 189.329 32.7851 189.386 32.8147 189.454C32.8579 189.55 32.8882 189.65 32.9046 189.754C32.9435 190.002 32.9329 190.255 32.8734 190.499C32.8139 190.743 32.7067 190.973 32.5579 191.175C32.2369 191.603 31.903 191.705 31.8945 191.676C31.8859 191.646 32.147 191.479 32.391 191.063C32.5356 190.827 32.6248 190.561 32.652 190.285C32.6661 190.124 32.6589 189.963 32.6306 189.805C32.605 189.63 32.5365 189.484 32.4723 189.506C32.4081 189.527 32.2497 189.638 32.1812 189.779C32.1018 189.923 32.0345 190.074 31.9801 190.229C31.8883 190.497 31.8364 190.776 31.826 191.059C31.8046 191.551 31.8945 191.851 31.8517 191.864Z" fill="#263238"/>
<path d="M38.6184 126.037C38.6184 126.037 46.1598 157.688 46.3224 160.658C46.485 163.629 35.6224 189.287 35.6224 189.287L27.6445 187.622C27.6445 187.622 28.8686 149.791 29.1425 149.051C29.4164 148.311 27.4604 129.684 27.4604 129.684L38.6184 126.037Z" fill="#263238"/>
<path d="M19.7693 123.645L38.3702 124.501L35.096 157.568L32.8362 189.458L23.1548 189.604C22.7782 183.432 23.1933 170.772 23.1933 170.772L22.6027 165.319L20.5098 146.115C20.3386 145.297 19.7308 141.223 19.0888 137.957C18.7207 136.083 18.1772 133.643 18.0702 132.851C17.7449 130.54 19.7693 123.645 19.7693 123.645Z" fill="#263238"/>
<path d="M37.1418 132.106C37.1371 132.156 37.1371 132.206 37.1418 132.256V132.684C37.1418 133.078 37.1418 133.639 37.1717 134.358C37.2017 135.077 37.2102 135.971 37.2231 137.003C37.2359 138.034 37.2616 139.211 37.2616 140.512C37.2616 143.11 37.2616 146.201 37.1888 149.637C37.1161 153.074 36.9449 156.845 36.6752 160.8C36.4056 164.754 36.029 168.504 35.6224 171.928C35.4041 173.64 35.1944 175.253 34.9718 176.76C34.8605 177.517 34.7621 178.245 34.6465 178.947L34.3127 180.958C34.1115 182.242 33.8847 183.394 33.7006 184.408C33.5166 185.422 33.3454 186.296 33.1956 187.01L32.866 188.65C32.8318 188.829 32.8061 188.971 32.789 189.078C32.7842 189.126 32.7842 189.175 32.789 189.223C32.8045 189.177 32.8173 189.13 32.8275 189.082C32.8532 188.975 32.8832 188.838 32.926 188.654C33.0116 188.269 33.1357 187.721 33.2898 187.019C33.4438 186.317 33.6364 185.44 33.8248 184.425C34.0131 183.411 34.2528 182.26 34.4668 180.976C34.578 180.338 34.6936 179.666 34.8134 178.964C34.9333 178.262 35.0317 177.534 35.1516 176.781C35.3912 175.27 35.5796 173.648 35.8192 171.945C36.2472 168.521 36.6068 164.767 36.885 160.817C37.1632 156.866 37.313 153.078 37.3857 149.646C37.4585 146.213 37.4585 143.11 37.42 140.512C37.42 139.228 37.3729 138.039 37.3515 137.007C37.3301 135.976 37.3001 135.085 37.2702 134.358C37.2402 133.63 37.2145 133.074 37.2017 132.684C37.2017 132.505 37.2017 132.359 37.176 132.256C37.1702 132.205 37.1588 132.155 37.1418 132.106Z" fill="#455A64"/>
<path d="M15.9044 69.6399C15.8316 71.3647 16.1259 73.0853 16.7678 74.6878C17.4098 76.2904 18.3846 77.7384 19.628 78.936L21.4641 73.9199" fill="#263238"/>
<path d="M29.2238 59.8515C27.7016 59.0494 25.9471 58.8042 24.2633 59.1582C22.5918 59.5122 20.9897 60.1383 19.521 61.0114C18.6622 61.4356 17.89 62.0161 17.2441 62.7234C16.1313 64.0673 15.0142 66.2929 14.8772 68.0349C14.766 69.4387 15.241 72.9783 15.8103 74.2666C16.3367 75.4521 18.8748 76.4066 20.1331 76.7062L31.9673 63.4382C31.7697 62.6887 31.4256 61.9858 30.9547 61.3702C30.4837 60.7545 29.8955 60.2384 29.2238 59.8515Z" fill="#263238"/>
<path d="M31.1883 61.7048L28.4192 61.1569C29.8701 64.7992 30.1312 73.0724 30.923 76.9116C31.9716 75.4436 34.4326 70.9667 34.347 69.1648C34.2614 67.3629 34.4925 61.4608 31.1883 61.7048Z" fill="#263238"/>
<path d="M32.6649 67.624C32.5322 64.8463 30.7517 61.4137 27.9826 61.6577L21.5626 63.1685C20.5736 63.4 19.6852 63.9429 19.0279 64.7172C18.3707 65.4916 17.9794 66.4565 17.9117 67.4699C17.9117 67.5726 17.9117 67.4442 17.9117 67.5256L19.0245 84.1063L23.6298 93.732L28.0511 83.8238C28.081 82.4756 28.1024 81.4013 28.1024 81.4056C28.1024 81.4099 31.6548 80.8792 32.4637 76.2696C32.8703 73.9627 32.8061 70.7099 32.6649 67.624Z" fill="#FFBE9D"/>
<path d="M31.4879 70.8853C31.4858 71.0399 31.424 71.1876 31.3156 71.2976C31.2071 71.4077 31.0603 71.4716 30.9058 71.476C30.8302 71.48 30.7544 71.469 30.683 71.4436C30.6116 71.4182 30.546 71.3789 30.4899 71.3279C30.4337 71.277 30.3883 71.2154 30.3561 71.1468C30.3239 71.0782 30.3057 71.0039 30.3024 70.9282C30.3046 70.7741 30.3664 70.6268 30.475 70.5174C30.5836 70.4081 30.7304 70.3451 30.8844 70.3418C30.96 70.3366 31.0359 70.3466 31.1076 70.3713C31.1792 70.396 31.2451 70.4349 31.3014 70.4856C31.3577 70.5363 31.4033 70.5979 31.4353 70.6665C31.4673 70.7352 31.4852 70.8096 31.4879 70.8853Z" fill="#263238"/>
<path d="M31.933 69.4259C31.8602 69.4986 31.4151 69.1605 30.7774 69.152C30.1397 69.1434 29.6689 69.4558 29.6004 69.3745C29.5319 69.2932 29.6432 69.2033 29.8486 69.0578C30.1279 68.8707 30.4585 68.775 30.7945 68.7839C31.1267 68.7875 31.449 68.897 31.7147 69.0963C31.9073 69.2504 31.9715 69.3916 31.933 69.4259Z" fill="#263238"/>
<path d="M25.9453 70.7869C25.9431 70.941 25.8812 71.0883 25.7727 71.1976C25.6641 71.307 25.5173 71.37 25.3632 71.3733C25.2878 71.3779 25.2121 71.3674 25.1408 71.3425C25.0694 71.3176 25.0037 71.2787 24.9475 71.2281C24.8913 71.1775 24.8458 71.1162 24.8136 71.0478C24.7813 70.9794 24.763 70.9053 24.7598 70.8297C24.7619 70.6752 24.8237 70.5275 24.9321 70.4174C25.0406 70.3074 25.1874 70.2435 25.3418 70.2391C25.4175 70.235 25.4933 70.2461 25.5647 70.2715C25.6361 70.2969 25.7017 70.3362 25.7578 70.3871C25.814 70.4381 25.8594 70.4996 25.8916 70.5683C25.9238 70.6369 25.942 70.7112 25.9453 70.7869Z" fill="#263238"/>
<path d="M25.8769 69.3103C25.7998 69.3874 25.3547 69.045 24.717 69.0364C24.0793 69.0278 23.6085 69.3403 23.54 69.259C23.4715 69.1776 23.5828 69.0878 23.7882 68.9422C24.0675 68.7551 24.398 68.6594 24.7341 68.6683C25.0663 68.6714 25.3889 68.7809 25.6543 68.9808C25.8469 69.1348 25.9111 69.2761 25.8769 69.3103Z" fill="#263238"/>
<path d="M27.7772 74.3607C28.115 74.2589 28.4646 74.2014 28.8172 74.1895C28.9799 74.1895 29.1339 74.1467 29.1639 74.0354C29.1796 73.8675 29.1437 73.6988 29.0612 73.5518C28.9157 73.1538 28.7616 72.7386 28.5989 72.302C27.9612 70.5258 27.499 69.0621 27.5717 69.0364C27.6445 69.0107 28.2223 70.4317 28.8557 72.2122L29.2837 73.4662C29.3844 73.6645 29.4103 73.8924 29.3565 74.1082C29.3322 74.1648 29.2953 74.215 29.2486 74.2551C29.2018 74.2952 29.1465 74.324 29.0869 74.3393C28.9958 74.3619 28.9024 74.3734 28.8087 74.3736C28.4656 74.4109 28.1192 74.4066 27.7772 74.3607Z" fill="#263238"/>
<path d="M21.9991 79.638C21.9991 79.638 23.4458 82.8394 28.081 82.4842V81.397C25.9301 81.3842 23.8248 80.7753 21.9991 79.638Z" fill="#EB996E"/>
<path d="M25.7185 67.0034C25.6543 67.1746 25.0166 67.0804 24.2676 67.1575C23.5186 67.2345 22.9066 67.4314 22.8124 67.273C22.7696 67.196 22.8766 67.0376 23.1249 66.8707C23.4548 66.6729 23.8249 66.5518 24.2079 66.5162C24.5909 66.4807 24.9769 66.5316 25.3376 66.6653C25.6115 66.768 25.7485 66.9178 25.7185 67.0034Z" fill="#263238"/>
<path d="M31.7619 67.4699C31.6506 67.6112 31.2097 67.4699 30.6833 67.44C30.1569 67.41 29.7075 67.5213 29.6047 67.3672C29.5619 67.2901 29.6347 67.1489 29.8316 67.0162C30.094 66.8491 30.4027 66.7697 30.7133 66.7894C31.0237 66.8006 31.3229 66.9083 31.5693 67.0976C31.7533 67.2474 31.8132 67.3972 31.7619 67.4699Z" fill="#263238"/>
<path d="M31.488 63.3825C31.331 63.0396 31.0818 62.7471 30.7681 62.5377C30.4544 62.3284 30.0887 62.2104 29.7118 62.197C28.958 62.1816 28.2154 62.3821 27.5718 62.7748C24.7898 64.3156 23.2918 68.1333 20.5483 69.7298C19.8721 70.1192 19.0075 69.7298 18.4083 70.2605C17.8091 70.7912 17.4453 71.6344 17.7449 72.3577C17.3661 71.8658 17.0591 71.3225 16.8333 70.7441C16.7227 70.4533 16.675 70.1423 16.6934 69.8317C16.7119 69.5211 16.796 69.2179 16.9403 68.9422C17.1842 68.5399 17.6079 68.236 17.7278 67.7824C17.8476 67.3287 17.685 66.9563 17.7278 66.5454C17.7767 66.1264 17.9233 65.7248 18.1558 65.3727C19.2239 63.4685 20.789 61.8901 22.684 60.806C23.9301 60.1174 25.3402 59.7815 26.7629 59.8344C28.1907 59.8934 29.55 60.4629 30.5935 61.4394C31.1927 62.0172 31.8218 62.6164 31.4923 63.3825" fill="#263238"/>
<path d="M18.481 70.834C18.4339 70.7013 16.0414 69.7854 15.9601 72.3491C15.8831 74.8358 18.404 74.395 18.4083 74.3222C18.4125 74.2494 18.481 70.834 18.481 70.834Z" fill="#FFBE9D"/>
<path d="M17.6678 73.3592C17.6678 73.3592 17.625 73.3849 17.5523 73.4191C17.4481 73.4619 17.3312 73.4619 17.227 73.4191C17.0688 73.3131 16.9417 73.1667 16.859 72.9952C16.7762 72.8236 16.7407 72.6331 16.7562 72.4433C16.7564 72.2298 16.8047 72.0192 16.8974 71.827C16.9229 71.7499 16.9665 71.6801 17.0246 71.6235C17.0827 71.5669 17.1536 71.5251 17.2313 71.5017C17.2817 71.4904 17.3345 71.4971 17.3806 71.5205C17.4267 71.5439 17.4632 71.5827 17.4838 71.6301C17.5138 71.6986 17.4838 71.7499 17.5095 71.7542C17.5352 71.7585 17.5651 71.7114 17.548 71.6087C17.5369 71.5462 17.5034 71.4899 17.4538 71.4503C17.4212 71.4236 17.3836 71.4038 17.3431 71.392C17.3027 71.3803 17.2603 71.3768 17.2184 71.3818C17.1152 71.3985 17.018 71.4416 16.9363 71.5068C16.8546 71.572 16.7911 71.6572 16.7519 71.7542C16.6411 71.9669 16.5839 72.2034 16.585 72.4433C16.5659 72.664 16.6126 72.8855 16.7192 73.0798C16.8259 73.274 16.9877 73.4323 17.1842 73.5347C17.2502 73.5563 17.3202 73.5629 17.389 73.554C17.4579 73.5451 17.5239 73.521 17.5822 73.4833C17.6636 73.4191 17.6764 73.3635 17.6678 73.3592Z" fill="#EB996E"/>
<path d="M17.5137 69.5372L17.6678 69.4558C17.7619 69.3959 17.9117 69.3189 18.0958 69.199C18.5906 68.8473 19.0481 68.4458 19.4611 68.0006C20.0591 67.3354 20.6206 66.6381 21.1431 65.912C21.7705 65.0133 22.4735 64.17 23.2446 63.3911C23.6545 63.0028 24.1051 62.6599 24.5885 62.3682C25.0438 62.1024 25.5295 61.8925 26.0352 61.7433C26.8923 61.4889 27.7892 61.396 28.6802 61.4694C29.2807 61.5187 29.8721 61.6468 30.4393 61.8503C30.5951 61.9018 30.748 61.9618 30.8972 62.03C30.949 62.0561 31.0036 62.0762 31.0599 62.09L30.9058 62.0086C30.767 61.9337 30.6241 61.8666 30.4778 61.8075C29.9103 61.5818 29.3138 61.4377 28.7059 61.3795C27.8049 61.2898 26.895 61.3756 26.0266 61.632C25.5126 61.7807 25.0183 61.9905 24.5543 62.2569C24.063 62.5533 23.6052 62.902 23.189 63.2969C22.4132 64.0801 21.7072 64.9293 21.0789 65.835C20.5621 66.5678 20.0078 67.2735 19.4183 67.9493C19.0153 68.3969 18.5695 68.804 18.0872 69.1648C17.9117 69.2889 17.7705 69.3745 17.6592 69.4387L17.5137 69.5372Z" fill="#455A64"/>
<path d="M18.1301 70.2519C18.016 70.9273 18.087 71.621 18.3355 72.2592C18.6351 72.8713 19.4227 73.295 20.0176 72.9697C20.5055 72.7001 20.6639 72.088 20.7537 71.5402C21.0234 69.9566 21.1603 68.3559 21.4385 66.7766L18.1301 70.2519Z" fill="#263238"/>
<path d="M26.185 75.542C26.0622 75.6973 25.9787 75.8799 25.9414 76.0744C25.9042 76.2688 25.9143 76.4694 25.971 76.6591C26.0303 76.8465 26.1329 77.0174 26.2704 77.158C26.408 77.2985 26.5766 77.4047 26.7628 77.468C26.9141 77.5192 27.078 77.5192 27.2293 77.468C27.3525 77.4028 27.4609 77.3129 27.5478 77.2039C27.6347 77.0949 27.6982 76.9692 27.7344 76.8346L28.004 76.1968C28.0432 76.128 28.0539 76.0466 28.034 75.97C27.9997 75.8972 27.9056 75.8673 27.8242 75.8459L26.2364 75.4179" fill="#EB996E"/>
<path d="M27.1951 77.4166C26.9491 77.4458 26.6998 77.4104 26.4718 77.3139C26.2044 77.2195 25.9807 77.0308 25.8426 76.7832C25.7649 76.63 25.7351 76.4571 25.757 76.2867C25.7692 76.1097 25.8157 75.9367 25.894 75.7774C25.9675 75.6158 26.0722 75.4704 26.2021 75.3494L26.2449 75.3109L26.2963 75.3323C27.3492 75.726 28.1709 75.9315 28.1624 75.9743C27.4988 75.9187 26.8478 75.7614 26.2321 75.5078H26.3262C26.2182 75.6092 26.1297 75.7296 26.0652 75.863C25.9939 75.9928 25.9513 76.1364 25.9402 76.284C25.9291 76.4317 25.9498 76.58 26.001 76.719C26.1202 76.9315 26.3092 77.0963 26.536 77.1855C26.9169 77.3567 27.2036 77.3824 27.1951 77.4166Z" fill="#263238"/>
<path d="M30.8973 62.1841C30.8973 62.1841 30.6747 62.137 30.2767 62.1199C29.7134 62.0972 29.1514 62.1889 28.6246 62.3896C28.2586 62.5269 27.9084 62.7034 27.5803 62.916C27.2059 63.1606 26.8458 63.4264 26.5017 63.7121C25.7137 64.3578 25.0067 65.0965 24.396 65.912C24.0707 66.34 23.7797 66.8022 23.4715 67.2174C23.1768 67.6258 22.8333 67.9966 22.4486 68.3216C21.7895 68.8578 21.0715 69.3173 20.3086 69.6912C19.6623 70.0165 19.1273 70.2391 18.7549 70.3974L18.3269 70.5686C18.278 70.5923 18.2262 70.6096 18.1729 70.62L18.3141 70.543L18.7421 70.3461C19.1059 70.1749 19.6366 69.9181 20.2701 69.6013C21.0167 69.2211 21.7187 68.7589 22.363 68.2232C22.7357 67.9013 23.069 67.5364 23.3559 67.1361C23.6598 66.7081 23.9509 66.2801 24.2804 65.8264C24.9009 65.0005 25.6195 64.2531 26.4204 63.6008C26.7709 63.3151 27.1382 63.0507 27.5204 62.809C27.8581 62.6031 28.2168 62.4338 28.5904 62.304C29.1384 62.1072 29.7218 62.0285 30.3024 62.0728C30.4567 62.085 30.6098 62.1093 30.7603 62.1456C30.807 62.1544 30.8529 62.1673 30.8973 62.1841Z" fill="#455A64"/>
<path d="M18.0872 68.7111C18.0205 68.7702 17.9455 68.8192 17.8647 68.8566L17.2269 69.2162L17.0129 69.3317C16.9295 69.3811 16.8357 69.4104 16.739 69.4173C16.68 69.4238 16.6207 69.4086 16.5721 69.3745C16.5446 69.3562 16.5219 69.3314 16.5063 69.3023C16.4906 69.2732 16.4823 69.2407 16.4822 69.2076C16.4901 69.0931 16.5335 68.9839 16.6063 68.8952L17.3596 67.7396L17.4538 67.8337C16.955 68.1845 16.3498 68.351 15.7418 68.3045C15.6646 68.3002 15.5884 68.2859 15.5149 68.2617C15.4728 68.249 15.434 68.2271 15.4014 68.1974C15.3688 68.1678 15.3433 68.1313 15.3266 68.0905C15.3129 68.0478 15.3099 68.0024 15.3182 67.9583C15.3264 67.9142 15.3455 67.8728 15.3737 67.838C15.4167 67.7817 15.4655 67.73 15.5192 67.6839C15.8492 67.3718 16.137 67.0178 16.3752 66.631C16.598 66.2633 16.7939 65.8799 16.9616 65.484C16.9442 65.5978 16.9155 65.7097 16.876 65.8178C16.7735 66.1155 16.6416 66.4023 16.4822 66.6738C16.2513 67.0785 15.963 67.4475 15.6262 67.7695C15.5321 67.8551 15.4379 67.9578 15.4721 68.0349C15.5064 68.1119 15.6433 68.1547 15.7717 68.159C16.0599 68.1801 16.3495 68.1512 16.6277 68.0734C16.9012 67.9967 17.1601 67.8753 17.3939 67.7139L17.6935 67.4999L17.488 67.8038L16.6919 68.9636C16.6331 69.0315 16.5946 69.1146 16.5807 69.2033C16.5807 69.2761 16.6406 69.3189 16.7219 69.3103C16.8744 69.2794 17.0196 69.2198 17.1499 69.1348L17.809 68.8138C17.8979 68.7699 17.9911 68.7355 18.0872 68.7111Z" fill="#455A64"/>
<path d="M64.4653 97.3572L64.0844 97.6996C64.047 97.7422 63.9952 97.7697 63.9389 97.7766C63.8661 97.7766 63.8148 97.7124 63.7805 97.6482C63.7251 97.5367 63.6927 97.4152 63.6853 97.2909C63.678 97.1666 63.6958 97.0421 63.7377 96.9249C63.8282 96.6914 63.9753 96.484 64.1657 96.3214C64.203 96.2776 64.2488 96.2417 64.3003 96.216C64.3518 96.1902 64.4079 96.1751 64.4653 96.1716C64.5778 96.1883 64.68 96.2463 64.7521 96.3342C64.8629 96.4422 64.9672 96.5565 65.0645 96.6766C65.0924 96.701 65.1142 96.7314 65.1283 96.7656C65.1424 96.7997 65.1484 96.8367 65.1459 96.8735C65.1294 96.929 65.0947 96.9772 65.0474 97.0105C64.8805 97.1517 64.6194 97.2159 64.4739 97.3572" fill="#EB996E"/>
<path d="M61.4351 90.8601C61.9872 90.8259 64.4825 90.5049 64.4825 90.5049L68.2831 91.3181C68.2831 91.3181 68.1419 92.4095 67.3586 92.3153C66.5754 92.2212 65.7108 92.2083 65.7108 92.2083L64.3455 92.4138C64.3455 92.4138 66.2715 93.6421 66.2972 93.8946C66.302 94.0788 66.2608 94.2612 66.1774 94.4254C66.3738 94.8601 66.4058 95.3513 66.2672 95.8078V97.5926L64.4996 98.8766C64.3342 98.5861 64.2752 98.2471 64.3327 97.9178C64.444 97.4128 65.1245 97.1046 65.1245 97.1046L64.6965 96.3685L64.063 96.163C64.063 96.163 59.9628 97.4214 58.9998 97.3786L58.178 98.1361L55.1606 94.2841C55.1606 94.2841 60.8787 90.8986 61.4351 90.8601Z" fill="#FFBE9D"/>
<path d="M64.0245 94.5495C64.0245 94.5966 64.5381 94.802 65.1373 95.1487C65.7365 95.4953 66.1774 95.8549 66.2116 95.8163C65.6484 95.1537 64.8776 94.7012 64.0245 94.5323V94.5495Z" fill="#EB996E"/>
<path d="M63.6649 93.1585C64.0544 93.4009 64.459 93.6182 64.8762 93.809C65.2661 94.0519 65.6691 94.2734 66.0831 94.4724C65.766 94.1297 65.3851 93.852 64.9618 93.655C64.5647 93.4092 64.1246 93.2407 63.6649 93.1585Z" fill="#EB996E"/>
<path d="M62.3296 91.164C62.6415 91.4309 62.9751 91.6714 63.3268 91.883C63.6508 92.144 64.0211 92.3414 64.4182 92.4651C64.1094 92.1925 63.7771 91.9476 63.4253 91.7332C63.101 91.4734 62.7287 91.2799 62.3296 91.164Z" fill="#EB996E"/>
<path d="M15.6306 94.5195L19.6067 116.283C19.6067 116.283 16.0885 124.843 16.5379 128.828C16.799 131.148 18.1172 136.211 18.1172 136.211L40.262 129.256C40.7572 129.085 41.1771 128.746 41.4491 128.298C41.7211 127.851 41.828 127.322 41.7514 126.804C40.8954 121.047 38.2803 103.512 37.1889 99.5742C35.3357 92.876 29.3694 85.0564 29.3694 85.0564L29.2923 82.7966L18.6779 82.5141L18.1814 85.0265C18.1814 85.0265 14.4707 89.0668 15.6306 94.5195Z" fill="#455A64"/>
<path d="M23.54 87.2735C22.2132 86.8712 22.0206 87.3848 19.8507 88.3135C17.6807 89.2423 17.1714 94.4339 17.1714 94.4339L20.116 99.7711L35.8579 109.247C35.8579 109.247 39.055 111.61 44.191 108.22C46.0785 106.974 58.8415 98.8766 58.8415 98.8766L55.2762 93.2612L40.262 99.6812L23.54 87.2735Z" fill="#455A64"/>
<g opacity="0.3">
<path d="M30.8973 106.247L17.7833 97.3614C17.628 97.2332 17.4396 97.1516 17.2398 97.126C17.0532 97.1435 16.8807 97.2326 16.7585 97.3747C16.6364 97.5168 16.5742 97.7008 16.5849 97.8879C16.6231 98.2631 16.7841 98.6151 17.0429 98.8894C18.2541 100.409 20.0731 101.29 21.8322 102.125C24.8239 103.546 29.1039 105.588 32.0999 107L30.8973 106.247Z" fill="black"/>
</g>
<path d="M31.3895 93.4923C31.4017 93.566 31.4017 93.6412 31.3895 93.7149C31.3673 93.9234 31.3272 94.1296 31.2697 94.3312C31.0411 95.0844 30.6173 95.7636 30.0413 96.3C29.1775 97.0967 28.045 97.5384 26.8698 97.5369C26.1797 97.5459 25.4951 97.4134 24.8582 97.1474C24.1453 96.891 23.5413 96.3987 23.1462 95.7522C23.0512 95.5776 22.9926 95.3855 22.9742 95.1875C22.9558 94.9896 22.978 94.79 23.0392 94.6008C23.0956 94.4128 23.1972 94.2414 23.3353 94.1019C23.4734 93.9623 23.6436 93.8588 23.831 93.8005C24.0115 93.7511 24.2004 93.74 24.3854 93.768C24.5704 93.796 24.7475 93.8625 24.9053 93.9631C25.2144 94.1415 25.4542 94.419 25.5858 94.7506C25.6756 95.0568 25.703 95.3778 25.6662 95.6947C25.6294 96.0116 25.5293 96.3179 25.3718 96.5953C25.1215 97.072 24.7963 97.5055 24.4088 97.8793C23.8491 98.4242 23.1792 98.843 22.4443 99.1077C22.2471 99.1766 22.0455 99.2323 21.8408 99.2746C21.7703 99.2968 21.6965 99.3069 21.6226 99.3046C21.6226 99.2832 21.9136 99.2232 22.4144 99.0264C23.1194 98.7361 23.7596 98.3083 24.2976 97.768C24.665 97.3979 24.9713 96.9717 25.2049 96.5054C25.3487 96.247 25.4394 95.9624 25.4718 95.6684C25.5041 95.3745 25.4774 95.077 25.3932 94.7934C25.2796 94.5027 25.0671 94.2614 24.7931 94.1119C24.5191 93.9624 24.2012 93.9143 23.8952 93.976C23.7417 94.0257 23.6026 94.1121 23.49 94.2277C23.3774 94.3433 23.2947 94.4846 23.249 94.6394C23.1988 94.8015 23.1813 94.972 23.1975 95.141C23.2136 95.31 23.2631 95.474 23.3431 95.6238C23.7166 96.2149 24.2748 96.6662 24.931 96.9078C25.5408 97.1632 26.1959 97.2928 26.857 97.2887C27.8017 97.2991 28.7259 97.0132 29.4998 96.4713C30.2736 95.9293 30.8582 95.1584 31.1712 94.267C31.351 93.7962 31.3681 93.488 31.3895 93.4923Z" fill="#61118B"/>
<path d="M37.5228 110.18C37.4263 110.049 37.3485 109.905 37.2916 109.752C37.2076 109.586 37.1347 109.414 37.0734 109.238C36.9818 109.009 36.9018 108.774 36.8337 108.537C36.6509 107.918 36.529 107.283 36.4699 106.64C36.4 105.852 36.413 105.059 36.5084 104.274C36.6155 103.491 36.8019 102.721 37.0648 101.975C37.2934 101.367 37.58 100.782 37.9208 100.229C38.0508 100.015 38.1938 99.8093 38.3488 99.6127C38.4522 99.4618 38.5667 99.3187 38.6912 99.1847C38.7852 99.0564 38.8945 98.94 39.0165 98.838C39.0507 98.868 38.5885 99.3816 38.0792 100.327C37.7707 100.882 37.5101 101.462 37.3002 102.061C37.0531 102.796 36.8754 103.553 36.7695 104.321C36.6794 105.091 36.6608 105.867 36.7138 106.64C36.766 107.272 36.8719 107.898 37.0306 108.511C37.2617 109.568 37.5613 110.163 37.5228 110.18Z" fill="#61118B"/>
<path d="M50.2558 104.53C50.2059 104.516 50.1583 104.494 50.1145 104.466C49.9838 104.393 49.858 104.312 49.7379 104.222C49.295 103.886 48.919 103.469 48.6294 102.994C48.1972 102.283 47.9609 101.471 47.9446 100.64C47.9297 100.146 48.0187 99.6548 48.2056 99.1976C48.3969 98.6871 48.7663 98.263 49.2457 98.0034C49.4959 97.869 49.7806 97.8123 50.0632 97.8408C50.2102 97.8551 50.3505 97.9099 50.4683 97.9991C50.5861 98.0882 50.677 98.2082 50.7308 98.3458C50.7758 98.4846 50.7746 98.6342 50.7276 98.7723C50.6805 98.9103 50.5901 99.0295 50.4698 99.112C50.2682 99.2618 50.0331 99.3602 49.785 99.3987C49.3741 99.4834 48.95 99.4791 48.5409 99.3861C48.1319 99.2931 47.7476 99.1135 47.4138 98.8594C46.9718 98.5111 46.6415 98.0409 46.4637 97.507C46.419 97.367 46.3847 97.224 46.361 97.079C46.361 96.9762 46.361 96.9249 46.361 96.9249C46.361 96.9249 46.4038 97.1346 46.545 97.4898C46.7435 97.989 47.077 98.4232 47.508 98.7439C47.8266 98.9745 48.1903 99.1352 48.5753 99.2156C48.9603 99.296 49.3579 99.2942 49.7422 99.2104C49.9577 99.1747 50.1617 99.0882 50.3371 98.9579C50.4222 98.9032 50.4868 98.822 50.5209 98.7267C50.555 98.6315 50.5566 98.5277 50.5254 98.4314C50.4841 98.333 50.417 98.2476 50.3311 98.1843C50.2452 98.121 50.1437 98.0822 50.0375 98.0719C49.7976 98.0515 49.5569 98.1005 49.3441 98.2132C48.9129 98.4512 48.5806 98.8351 48.4068 99.296C48.2288 99.7258 48.1414 100.188 48.15 100.653C48.1568 101.451 48.369 102.233 48.7663 102.925C49.1516 103.554 49.6579 104.099 50.2558 104.53Z" fill="#61118B"/>
<path d="M22.2774 111.935C21.5761 112.001 20.8691 111.905 20.2102 111.657C19.5295 111.477 18.8987 111.145 18.3655 110.685C18.3997 110.625 19.1958 111.113 20.2786 111.447C21.3615 111.781 22.2817 111.866 22.2774 111.935Z" fill="#61118B"/>
<path d="M39.4016 114.344C39.4016 114.344 39.0678 114.079 38.4301 113.673C37.5201 113.111 36.5216 112.707 35.4769 112.478C33.9298 112.126 32.3177 112.182 30.7988 112.641C30.3578 112.764 29.9326 112.938 29.5319 113.159C29.1242 113.381 28.7874 113.713 28.5604 114.118C28.4436 114.32 28.3734 114.545 28.3549 114.778C28.3364 115.01 28.37 115.244 28.4534 115.462C28.5576 115.677 28.7133 115.863 28.9067 116.003C29.1001 116.143 29.3252 116.234 29.5619 116.266C29.7998 116.308 30.0442 116.296 30.2768 116.231C30.5095 116.166 30.7244 116.049 30.9058 115.89C31.2668 115.577 31.5187 115.157 31.6249 114.691C31.7051 114.241 31.6926 113.779 31.5881 113.334C31.4836 112.889 31.2893 112.469 31.0171 112.102C30.575 111.451 30.0057 110.897 29.3437 110.473C28.6817 110.049 27.9406 109.763 27.1651 109.632C26.1086 109.464 25.0263 109.584 24.0321 109.979C23.6713 110.134 23.3185 110.307 22.975 110.497C23.0513 110.427 23.1344 110.365 23.2232 110.313C23.4696 110.15 23.7287 110.006 23.9979 109.885C25.2526 109.34 26.6582 109.25 27.9719 109.631C29.2856 110.013 30.4248 110.841 31.1926 111.973C31.4829 112.363 31.6901 112.809 31.8013 113.282C31.9124 113.756 31.9252 114.247 31.8389 114.725C31.7234 115.239 31.4476 115.702 31.0513 116.048C30.8452 116.228 30.6014 116.36 30.3379 116.434C30.0743 116.508 29.7975 116.522 29.5277 116.476C29.2558 116.439 28.9971 116.337 28.7741 116.177C28.551 116.017 28.3704 115.805 28.2479 115.56C28.1512 115.312 28.1114 115.045 28.1314 114.779C28.1514 114.513 28.2307 114.255 28.3635 114.023C28.6178 113.586 28.9901 113.228 29.4378 112.992C29.8433 112.764 30.2742 112.584 30.7218 112.457C32.2824 111.988 33.9397 111.942 35.5239 112.324C36.5813 112.572 37.5858 113.007 38.49 113.608C38.7328 113.773 38.9658 113.951 39.1876 114.143C39.2654 114.203 39.3371 114.271 39.4016 114.344Z" fill="#61118B"/>
<path d="M41.6059 126.756C41.5376 126.694 41.476 126.626 41.4218 126.551C41.3063 126.418 41.1351 126.217 40.8997 125.973C40.2485 125.277 39.4827 124.698 38.6355 124.261C38.0519 123.964 37.4251 123.76 36.778 123.658C36.0362 123.545 35.2814 123.545 34.5396 123.658C32.836 123.981 31.1939 124.571 29.6732 125.404C28.0211 126.234 26.4333 127.06 24.8625 127.48C23.4709 127.887 21.9998 127.94 20.5825 127.634C19.6355 127.433 18.7304 127.07 17.9075 126.56C17.6834 126.43 17.4676 126.287 17.2612 126.132C17.1866 126.077 17.1178 126.016 17.0558 125.948C17.0558 125.948 17.3639 126.166 17.9503 126.504C18.7808 126.974 19.6808 127.31 20.6167 127.497C22.0043 127.774 23.4386 127.706 24.794 127.3C26.3348 126.872 27.9013 126.055 29.5619 125.224C31.1021 124.378 32.7684 123.786 34.4968 123.469C35.2584 123.351 36.0336 123.351 36.7951 123.469C37.4594 123.578 38.1013 123.795 38.6955 124.111C39.5495 124.57 40.3136 125.179 40.951 125.909C41.1258 126.104 41.2901 126.309 41.4432 126.521C41.5048 126.594 41.5593 126.673 41.6059 126.756Z" fill="#61118B"/>
<path d="M21.9392 100.323C21.799 100.56 21.6162 100.769 21.3999 100.94C20.4461 101.844 19.2874 102.503 18.023 102.861C17.7662 102.953 17.4955 103.001 17.2227 103.002C18.0761 102.69 18.9094 102.326 19.7179 101.911C20.4919 101.43 21.2339 100.9 21.9392 100.323Z" fill="#61118B"/>
<path d="M30.5164 86.5202C30.5164 86.5544 30.1355 86.4218 29.5192 86.3019C27.9109 85.9808 26.2424 86.1756 24.7513 86.8583C24.1777 87.1194 23.8525 87.3334 23.8311 87.2863C24.0792 87.0415 24.3691 86.8429 24.6871 86.7C25.4318 86.3123 26.2412 86.0642 27.0753 85.9681C27.9071 85.8679 28.7503 85.923 29.562 86.1307C29.9008 86.2025 30.2241 86.3344 30.5164 86.5202Z" fill="#61118B"/>
<path d="M24.259 82.8351C24.0362 83.018 23.7845 83.1626 23.5143 83.2631C22.8779 83.5532 22.208 83.7631 21.5198 83.888C20.8326 84.0136 20.132 84.0495 19.4355 83.995C19.1435 83.9967 18.8535 83.946 18.5795 83.8452C19.547 83.8603 20.5142 83.8016 21.4727 83.6697C22.4213 83.4624 23.3527 83.1834 24.259 82.8351Z" fill="#61118B"/>
<path d="M25.757 88.9855L25.8254 89.0454L26.0266 89.208L26.8227 89.8158L29.763 92.02L39.5086 99.2404L40.1378 99.724L40.1806 99.754L40.2319 99.724L50.9319 95.1829L54.1334 93.8005L54.9894 93.4153L55.2119 93.304L55.2847 93.2655C55.2847 93.2655 55.2547 93.2655 55.2034 93.2655L54.9722 93.3554L54.0948 93.7063L50.8677 95.0374L40.1677 99.5271H40.2576L39.6284 99.0649L29.8401 91.913L26.8655 89.773L26.048 89.1909L25.834 89.0454C25.7869 88.9983 25.7612 88.9812 25.757 88.9855Z" fill="#263238"/>
<path d="M18.832 98.119C18.9042 98.1862 18.9815 98.2477 19.0632 98.303C19.2172 98.4229 19.4484 98.5898 19.7437 98.8038C20.3429 99.2318 21.2117 99.8438 22.3117 100.584C24.4816 102.069 27.4905 104.098 30.8717 106.264C32.5837 107.338 34.1801 108.361 35.7081 109.196C35.8964 109.303 36.089 109.405 36.2816 109.491L36.5726 109.628L36.868 109.739C37.2498 109.872 37.6442 109.965 38.045 110.017C38.7568 110.112 39.479 110.093 40.185 109.962C40.7728 109.858 41.3471 109.689 41.897 109.457C42.1409 109.367 42.3592 109.247 42.5646 109.157C42.7701 109.067 42.9413 108.956 43.0996 108.862C43.4164 108.673 43.656 108.519 43.8144 108.404C43.8971 108.35 43.9758 108.29 44.0498 108.224C43.9607 108.266 43.8749 108.315 43.793 108.37C43.6304 108.477 43.365 108.622 43.0654 108.798L42.5218 109.076C42.3164 109.161 42.0938 109.273 41.8584 109.358C41.3065 109.577 40.7324 109.734 40.1464 109.829C38.6342 110.109 37.0719 109.829 35.7509 109.042C34.24 108.186 32.6265 107.18 30.9359 106.101C27.5632 103.94 24.5458 101.932 22.3759 100.473L19.8079 98.761L19.106 98.2902C19.02 98.2249 18.9283 98.1676 18.832 98.119Z" fill="#263238"/>
<path d="M17.4837 88.0482C17.4837 88.0781 17.8304 87.7914 18.4467 87.4789C19.2398 87.0663 20.1207 86.8509 21.0147 86.8509C21.9087 86.8509 22.7896 87.0663 23.5827 87.4789C24.1948 87.7956 24.52 88.0824 24.5414 88.0567C24.481 87.974 24.4089 87.9005 24.3274 87.8384C24.1147 87.6595 23.8871 87.4991 23.6469 87.3591C22.8435 86.8992 21.934 86.6573 21.0083 86.6573C20.0826 86.6573 19.173 86.8992 18.3697 87.3591C18.1269 87.4955 17.8976 87.6545 17.6849 87.8342C17.5479 87.9583 17.4752 88.0396 17.4837 88.0482Z" fill="#263238"/>
<path d="M18.4254 84.9794C18.5633 85.0368 18.7067 85.0798 18.8534 85.1078C19.1231 85.1806 19.5125 85.2662 20.0047 85.356C22.562 85.8182 25.1798 85.8356 27.743 85.4074C28.2352 85.3218 28.6289 85.2405 28.8986 85.172C29.0458 85.1508 29.1897 85.1105 29.3266 85.0522C29.1826 85.0513 29.039 85.0671 28.8986 85.0992C28.6247 85.1463 28.2309 85.2105 27.7387 85.2747C26.4619 85.4457 25.1749 85.5286 23.8867 85.523C22.5973 85.5131 21.3101 85.413 20.0347 85.2234C19.5468 85.1506 19.1487 85.0864 18.8748 85.035C18.7277 84.9989 18.5769 84.9802 18.4254 84.9794Z" fill="#263238"/>
<path d="M23.4586 109.243C23.2532 109.586 23.0703 109.942 22.9108 110.308C22.5812 110.972 22.1233 111.883 21.5883 112.876C21.0533 113.869 20.544 114.747 20.1588 115.385C19.9383 115.715 19.7396 116.06 19.5638 116.416C19.83 116.116 20.0665 115.79 20.27 115.444C20.698 114.828 21.2159 113.951 21.7552 112.958C22.2945 111.965 22.7353 111.036 23.0392 110.356C23.214 109.999 23.3544 109.626 23.4586 109.243Z" fill="#263238"/>
<path d="M37.4371 130.151C37.1501 129.636 36.9218 129.09 36.7566 128.524C36.6534 127.942 36.6175 127.351 36.6496 126.761C36.4574 127.344 36.4293 127.968 36.5681 128.566C36.707 129.164 37.0077 129.712 37.4371 130.151Z" fill="#263238"/>
<path d="M30.816 128.451C30.7326 128.623 30.6915 128.813 30.6962 129.003C30.6742 129.464 30.7455 129.925 30.9058 130.357C31.0661 130.789 31.3122 131.185 31.6292 131.52C31.8774 131.768 32.0572 131.88 32.0572 131.863C31.6452 131.395 31.3101 130.865 31.0642 130.292C30.8824 129.696 30.7986 129.074 30.816 128.451Z" fill="#263238"/>
<path d="M24.2205 129.958C24.109 130.667 24.16 131.392 24.3698 132.079C24.5797 132.766 24.9428 133.396 25.4318 133.921C24.6724 132.736 24.2534 131.365 24.2205 129.958Z" fill="#263238"/>
<path d="M19.6879 131.186C19.5922 131.395 19.5384 131.62 19.5296 131.85C19.4645 132.398 19.479 132.953 19.5724 133.497C19.6662 134.042 19.8362 134.571 20.0774 135.068C20.1655 135.28 20.2901 135.474 20.4455 135.642C20.1497 134.94 19.9205 134.212 19.7607 133.468C19.6627 132.711 19.6383 131.947 19.6879 131.186Z" fill="#263238"/>
</svg>
