<svg width="214" height="214" viewBox="0 0 214 214" fill="none" xmlns="http://www.w3.org/2000/svg">
<path d="M109.658 18.5367C162.957 18.5838 160.363 48.4239 181.686 78.3582C203.009 108.293 206.977 121.351 195.117 152.578C183.257 183.805 150.733 206.202 114.571 188.602C78.4096 171.003 55.7342 182.756 33.2556 167.986C10.7771 153.215 4.20725 128.023 24.0793 100.79C43.9513 73.5561 43.9428 18.481 109.658 18.5367Z" fill="#61118B"/>
<path opacity="0.7" d="M109.658 18.5367C162.957 18.5838 160.363 48.4239 181.686 78.3582C203.009 108.293 206.977 121.351 195.117 152.578C183.257 183.805 150.733 206.202 114.571 188.602C78.4096 171.003 55.7342 182.756 33.2556 167.986C10.7771 153.215 4.20725 128.023 24.0793 100.79C43.9513 73.5561 43.9428 18.481 109.658 18.5367Z" fill="white"/>
<path d="M32.0743 69.6784V49.8877H34.0217" stroke="#263238" stroke-linecap="round" stroke-linejoin="round"/>
<path d="M34.0217 76.3937H32.0743V74.6603" stroke="#263238" stroke-linecap="round" stroke-linejoin="round"/>
<path d="M37.2617 76.3937H36.3586" stroke="#263238" stroke-linecap="round" stroke-linejoin="round"/>
<path d="M38.9523 49.8877H51.253V76.3937H39.4616" stroke="#263238" stroke-linecap="round" stroke-linejoin="round"/>
<path d="M36.3586 49.8877H37.2617" stroke="#263238" stroke-linecap="round" stroke-linejoin="round"/>
<path d="M34.0217 59.8729V58.4306" stroke="#263238" stroke-linecap="round" stroke-linejoin="round"/>
<path d="M45.8088 74.4506H34.0217V63.1428" stroke="#263238" stroke-linecap="round" stroke-linejoin="round"/>
<path d="M34.0217 56.573V51.8308H49.3099V74.4506H48.2656" stroke="#263238" stroke-linecap="round" stroke-linejoin="round"/>
<path d="M43.442 60.7717H40.2234V65.5097H43.442V60.7717Z" stroke="#263238" stroke-linecap="round" stroke-linejoin="round"/>
<path d="M46.7505 70.6628L48.3897 73.0896" stroke="#263238" stroke-linecap="round" stroke-linejoin="round"/>
<path d="M43.8229 66.3314L46.2326 69.8967" stroke="#263238" stroke-linecap="round" stroke-linejoin="round"/>
<path d="M36.3586 55.289L39.0336 59.248" stroke="#263238" stroke-linecap="round" stroke-linejoin="round"/>
<path d="M34.775 52.9479L35.7295 54.3603" stroke="#263238" stroke-linecap="round" stroke-linejoin="round"/>
<path d="M162.747 56.603V76.3937H164.69" stroke="#263238" stroke-linecap="round" stroke-linejoin="round"/>
<path d="M164.69 49.8877H162.747V51.6253" stroke="#263238" stroke-linecap="round" stroke-linejoin="round"/>
<path d="M167.93 49.8877H167.027" stroke="#263238" stroke-linecap="round" stroke-linejoin="round"/>
<path d="M169.621 76.3937H181.926V49.8877H170.13" stroke="#263238" stroke-linecap="round" stroke-linejoin="round"/>
<path d="M167.027 76.3937H167.93" stroke="#263238" stroke-linecap="round" stroke-linejoin="round"/>
<path d="M179.978 59.8729V58.4306" stroke="#263238" stroke-linecap="round" stroke-linejoin="round"/>
<path d="M168.191 74.4506H179.978V63.1428" stroke="#263238" stroke-linecap="round" stroke-linejoin="round"/>
<path d="M179.978 56.573V51.8308H164.69V74.4506H165.734" stroke="#263238" stroke-linecap="round" stroke-linejoin="round"/>
<path d="M167.476 58.4306L175.775 54.2661L177.209 65.0774L167.476 58.4306Z" stroke="#263238" stroke-linecap="round" stroke-linejoin="round"/>
<path d="M169.621 66.4984L170.858 70.6799L174.085 68.7967L169.621 66.4984Z" stroke="#263238" stroke-linecap="round" stroke-linejoin="round"/>
<path d="M72.76 42.7572V50.7565" stroke="#263238" stroke-linecap="round" stroke-linejoin="round"/>
<path d="M72.76 26.8399V40.1935" stroke="#263238" stroke-linecap="round" stroke-linejoin="round"/>
<path d="M72.76 22.8038V24.9053" stroke="#263238" stroke-linecap="round" stroke-linejoin="round"/>
<path d="M69.5757 61.4052H67.3458L69.4858 51.6254H73.4149" stroke="#263238" stroke-linecap="round" stroke-linejoin="round"/>
<path d="M77.7034 59.2652L78.1742 61.4052H71.6087" stroke="#263238" stroke-linecap="round" stroke-linejoin="round"/>
<path d="M74.5405 51.6254H76.0342L77.4081 57.9084" stroke="#263238" stroke-linecap="round" stroke-linejoin="round"/>
<path d="M141.24 42.7572V50.7565" stroke="#263238" stroke-linecap="round" stroke-linejoin="round"/>
<path d="M141.24 26.8399V40.1935" stroke="#263238" stroke-linecap="round" stroke-linejoin="round"/>
<path d="M141.24 22.8038V24.9053" stroke="#263238" stroke-linecap="round" stroke-linejoin="round"/>
<path d="M144.424 61.4052H146.654L144.514 51.6254H140.585" stroke="#263238" stroke-linecap="round" stroke-linejoin="round"/>
<path d="M136.297 59.2652L135.826 61.4052H142.391" stroke="#263238" stroke-linecap="round" stroke-linejoin="round"/>
<path d="M139.455 51.6254H137.966L136.592 57.9084" stroke="#263238" stroke-linecap="round" stroke-linejoin="round"/>
<path d="M72.6444 179.897V121.766C72.6448 120.208 73.1687 118.696 74.132 117.472C75.0953 116.248 76.442 115.383 77.9559 115.016C87.4735 112.719 97.2263 111.538 107.017 111.498C116.855 111.543 126.65 112.806 136.177 115.26C137.661 115.651 138.974 116.522 139.911 117.738C140.848 118.953 141.356 120.445 141.356 121.98V199.405" fill="white"/>
<mask id="mask0_83_3525" style="mask-type:luminance" maskUnits="userSpaceOnUse" x="72" y="111" width="70" height="89">
<path d="M72.6444 179.897V121.766C72.6448 120.208 73.1687 118.696 74.132 117.472C75.0953 116.248 76.442 115.383 77.9559 115.016C87.4735 112.719 97.2263 111.538 107.017 111.498C116.855 111.543 126.65 112.806 136.177 115.26C137.661 115.651 138.974 116.522 139.911 117.738C140.848 118.953 141.356 120.445 141.356 121.98V199.405" fill="white"/>
</mask>
<g mask="url(#mask0_83_3525)">
<path opacity="0.4" d="M140.174 118.102C128.516 129.744 94.3184 127.745 94.3184 127.745L72.6444 171.093V121.766C72.6448 120.208 73.1687 118.696 74.132 117.472C75.0953 116.248 76.442 115.383 77.9559 115.016C87.4735 112.719 97.2263 111.538 107.017 111.498C116.855 111.543 126.65 112.806 136.177 115.26C137.812 115.687 139.234 116.698 140.174 118.102Z" fill="#61118B"/>
<path opacity="0.4" d="M141.356 134.957C141.356 134.957 138.788 133.412 133.04 139.507C127.291 145.601 127.621 151.919 126.774 157.911C125.926 163.903 120.178 165.375 118.556 170.639C116.934 175.904 114.233 180.988 119.314 186.236C124.394 191.483 135.265 198.429 141.343 196.734L141.356 134.957Z" fill="#61118B"/>
</g>
<path d="M72.6444 179.897V121.766C72.6448 120.208 73.1687 118.696 74.132 117.472C75.0953 116.248 76.442 115.383 77.9559 115.016C87.4735 112.719 97.2263 111.538 107.017 111.498C116.855 111.543 126.65 112.806 136.177 115.26C137.661 115.651 138.974 116.522 139.911 117.738C140.848 118.953 141.356 120.445 141.356 121.98V199.405" stroke="#263238" stroke-linecap="round" stroke-linejoin="round"/>
<path d="M87.5688 46.8189C90.8473 45.2139 100.627 45.1711 102.039 44.9357C103.452 44.7003 108.395 53.5257 108.395 53.5257L100.627 63.1771C100.627 63.1771 103.572 71.5274 102.159 71.7628C100.747 71.9982 92.157 76.1284 91.2154 77.1213C90.2738 78.1143 94.0402 80.7037 90.5092 82.4671C86.9782 84.2304 84.9794 84.1405 84.9794 84.1405L82.9807 79.18C82.9807 79.18 89.1011 77.4124 88.5104 75.1782C87.9198 72.9441 86.0408 69.4131 87.8042 67.6497C89.5676 65.8863 92.8632 66.2373 92.157 64.0031C91.4508 61.769 83.3873 48.8691 87.5688 46.8189Z" fill="#61118B"/>
<mask id="mask1_83_3525" style="mask-type:luminance" maskUnits="userSpaceOnUse" x="82" y="44" width="27" height="41">
<path d="M87.5688 46.8189C90.8473 45.2139 100.627 45.1711 102.039 44.9357C103.452 44.7003 108.395 53.5257 108.395 53.5257L100.627 63.1771C100.627 63.1771 103.572 71.5274 102.159 71.7628C100.747 71.9982 92.157 76.1284 91.2154 77.1213C90.2738 78.1143 94.0402 80.7037 90.5092 82.4671C86.9782 84.2304 84.9794 84.1405 84.9794 84.1405L82.9807 79.18C82.9807 79.18 89.1011 77.4124 88.5104 75.1782C87.9198 72.9441 86.0408 69.4131 87.8042 67.6497C89.5676 65.8863 92.8632 66.2373 92.157 64.0031C91.4508 61.769 83.3873 48.8691 87.5688 46.8189Z" fill="white"/>
</mask>
<g mask="url(#mask1_83_3525)">
<path opacity="0.3" d="M100.627 63.1772C100.627 63.1772 103.567 71.5274 102.159 71.7628C100.751 71.9982 92.157 76.1284 91.2197 77.1214C90.2823 78.1144 94.0402 80.7038 90.5092 82.4671C86.9782 84.2305 84.9794 84.1406 84.9794 84.1406L82.9807 79.1801C82.9807 79.1801 89.1011 77.4124 88.5104 75.1783C87.9198 72.9441 86.0408 69.4131 87.8042 67.6498C89.5676 65.8864 92.8632 66.2374 92.157 63.9989C91.4508 61.7605 83.383 48.8734 87.5688 46.8233C87.9946 46.6237 88.4372 46.4618 88.8913 46.3396C88.4633 48.608 88.061 52.9651 90.629 54.4417C94.16 56.4704 97.6097 54.4417 97.6097 54.4417C97.6097 54.4417 102.63 50.1189 102.63 48.2357C102.63 46.3525 94.725 45.4751 94.5281 45.4537C97.9136 45.1455 101.252 45.077 102.035 44.9444C103.448 44.709 108.387 53.5343 108.387 53.5343L100.627 63.1772Z" fill="black" fill-opacity="0.7"/>
</g>
<path d="M87.5688 46.8189C90.8473 45.2139 100.627 45.1711 102.039 44.9357C103.452 44.7003 108.395 53.5257 108.395 53.5257L100.627 63.1771C100.627 63.1771 103.572 71.5274 102.159 71.7628C100.747 71.9982 92.157 76.1284 91.2154 77.1213C90.2738 78.1143 94.0402 80.7037 90.5092 82.4671C86.9782 84.2304 84.9794 84.1405 84.9794 84.1405L82.9807 79.18C82.9807 79.18 89.1011 77.4124 88.5104 75.1782C87.9198 72.9441 86.0408 69.4131 87.8042 67.6497C89.5676 65.8863 92.8632 66.2373 92.157 64.0031C91.4508 61.769 83.3873 48.8691 87.5688 46.8189Z" stroke="#263238" stroke-linecap="round" stroke-linejoin="round"/>
<path d="M102.574 111.169L92.8888 87.2007C92.7181 86.7928 92.7118 86.3345 92.8714 85.922C93.031 85.5095 93.344 85.1748 93.7448 84.988L102.9 80.708L93.2056 66.5369C92.9494 66.1632 92.8454 65.706 92.9146 65.2583C92.9837 64.8106 93.221 64.4062 93.5779 64.1272L116.335 46.4209L99.0734 45.1369L94.9689 45.4793L97.4342 41.974C97.4342 41.974 119.938 42.6502 122.999 44.3536C126.059 46.0571 109.435 60.3223 109.435 60.3223L115.68 62.6635C115.832 62.7198 115.968 62.813 116.076 62.9346C116.183 63.0563 116.259 63.2026 116.296 63.3607C116.334 63.5187 116.331 63.6835 116.289 63.8404C116.248 63.9973 116.168 64.1415 116.056 64.2599L110.784 69.9352L109.435 80.9562L121.201 85.2362C121.429 85.3169 121.638 85.4452 121.813 85.6126C121.988 85.78 122.126 85.9826 122.217 86.2072C122.308 86.4317 122.351 86.673 122.341 86.9151C122.332 87.1572 122.272 87.3946 122.164 87.6116L110.784 111.152L117.062 112.324V116.3C117.062 116.3 111.378 118.5 105.583 118.5C99.7882 118.5 96.484 116.3 96.484 116.3V113.206L102.574 111.169Z" fill="#61118B"/>
<mask id="mask2_83_3525" style="mask-type:luminance" maskUnits="userSpaceOnUse" x="92" y="41" width="32" height="78">
<path d="M102.574 111.169L92.8888 87.2007C92.7181 86.7928 92.7118 86.3345 92.8714 85.922C93.031 85.5095 93.344 85.1748 93.7448 84.988L102.9 80.708L93.2056 66.5369C92.9494 66.1632 92.8454 65.706 92.9146 65.2583C92.9837 64.8106 93.221 64.4062 93.5779 64.1272L116.335 46.4209L99.0734 45.1369L94.9689 45.4793L97.4342 41.974C97.4342 41.974 119.938 42.6502 122.999 44.3536C126.059 46.0571 109.435 60.3223 109.435 60.3223L115.68 62.6635C115.832 62.7198 115.968 62.813 116.076 62.9346C116.183 63.0563 116.259 63.2026 116.296 63.3607C116.334 63.5187 116.331 63.6835 116.289 63.8404C116.248 63.9973 116.168 64.1415 116.056 64.2599L110.784 69.9352L109.435 80.9562L121.201 85.2362C121.429 85.3169 121.638 85.4452 121.813 85.6126C121.988 85.78 122.126 85.9826 122.217 86.2072C122.308 86.4317 122.351 86.673 122.341 86.9151C122.332 87.1572 122.272 87.3946 122.164 87.6116L110.784 111.152L117.062 112.324V116.3C117.062 116.3 111.378 118.5 105.583 118.5C99.7882 118.5 96.484 116.3 96.484 116.3V113.206L102.574 111.169Z" fill="white"/>
</mask>
<g mask="url(#mask2_83_3525)">
<path opacity="0.3" d="M109.452 60.318L115.697 62.6592C115.849 62.7161 115.985 62.8098 116.093 62.9318C116.2 63.0539 116.276 63.2006 116.313 63.3589C116.35 63.5172 116.348 63.6822 116.306 63.8394C116.264 63.9966 116.185 64.141 116.074 64.2599L110.801 69.9309L109.452 80.9519C109.452 80.9519 98.2731 86.8198 102.917 80.7122L93.2227 66.5412C93.163 66.4586 93.1127 66.3696 93.0729 66.2758C95.3498 66.5583 97.5198 66.6225 98.7439 66.1132C101.796 64.8548 119.866 49.3013 123.264 44.5805C124.903 47.08 109.452 60.318 109.452 60.318Z" fill="black" fill-opacity="0.7"/>
<path opacity="0.3" d="M117.075 112.337C117.075 112.337 109.461 118.449 96.5012 114.006V113.206L102.574 111.169L92.8888 87.2007C92.7557 86.8764 92.7253 86.519 92.8019 86.1768C92.8784 85.8347 93.0582 85.5243 93.3168 85.2876C95.0288 86.9996 98.7439 88.2493 98.7439 88.2493L102.673 86.6743C102.673 86.6743 101.389 88.9898 101.689 90.5263C101.988 92.0628 106.709 95.5296 106.709 95.5296L103.332 112.59C103.332 112.59 106.974 113.985 110.801 111.169L117.075 112.337Z" fill="black" fill-opacity="0.7"/>
</g>
<path d="M102.574 111.169L92.8888 87.2007C92.7181 86.7927 92.7118 86.3345 92.8714 85.922C93.031 85.5095 93.344 85.1748 93.7448 84.988L102.9 80.708L93.2056 66.5369C92.9494 66.1632 92.8454 65.706 92.9146 65.2583C92.9837 64.8106 93.221 64.4062 93.5779 64.1272L116.335 46.4209L99.0734 45.1369L94.9689 45.4793L97.4342 41.974C97.4342 41.974 119.938 42.6502 122.999 44.3536C126.059 46.0571 109.435 60.3223 109.435 60.3223L115.68 62.6635C115.832 62.7198 115.968 62.813 116.076 62.9346C116.183 63.0563 116.259 63.2026 116.296 63.3607C116.334 63.5187 116.331 63.6835 116.289 63.8404C116.248 63.9973 116.168 64.1415 116.056 64.2599L110.784 69.9352L109.435 80.9562L121.201 85.2362C121.429 85.3169 121.638 85.4452 121.813 85.6126C121.988 85.78 122.126 85.9826 122.217 86.2072C122.308 86.4317 122.351 86.673 122.341 86.9151C122.332 87.1572 122.272 87.3946 122.164 87.6116L110.784 111.152L117.062 112.324V116.3C117.062 116.3 111.378 118.5 105.583 118.5C99.7882 118.5 96.484 116.3 96.484 116.3V113.206L102.574 111.169Z" stroke="#263238" stroke-linecap="round" stroke-linejoin="round"/>
<path d="M103.807 48.2313C105.335 50.9363 98.7482 55.9353 98.7482 55.9353L99.8524 59.278" stroke="#263238" stroke-linecap="round" stroke-linejoin="round"/>
<path d="M109.452 60.318C109.452 60.318 104.5 63.9988 104.034 65.6424C103.567 67.2859 105.57 69.4088 105.57 69.4088" stroke="#263238" stroke-linecap="round" stroke-linejoin="round"/>
<path d="M103.452 85.2918C103.452 85.2918 100.623 89.88 101.393 91.057C102.164 92.234 106.041 96.116 106.041 96.116L102.159 113.664C102.159 113.664 105.511 115.483 109.923 113.664" stroke="#263238" stroke-linecap="round" stroke-linejoin="round"/>
<path d="M96.5012 113.206C99.3078 114.681 102.422 115.478 105.592 115.53C108.782 115.471 111.915 114.676 114.747 113.206" stroke="#263238" stroke-linecap="round" stroke-linejoin="round"/>
<path opacity="0.3" d="M99.0905 45.1369L94.986 45.475L97.2287 42.2864C97.9246 42.7419 98.6716 43.114 99.4543 43.3949C104.629 45.4065 117.572 44.9314 117.572 44.9314L116.211 46.4123L99.0905 45.1369Z" fill="black" fill-opacity="0.7"/>
<path opacity="0.3" d="M92.6021 83.1476C92.6426 83.035 92.6958 82.9273 92.7604 82.8266L92.6021 83.1476Z" fill="black" fill-opacity="0.7"/>
<path opacity="0.4" d="M103.49 90.3893C103.49 90.3893 108.746 92.6663 109.91 92.9017C111.075 93.1371 120.657 87.3377 121.038 86.7042C121.419 86.0708 116.96 87.5602 112.962 88.4162C108.965 89.2722 103.469 88.2579 103.469 88.2579C103.469 88.2579 102.497 89.9656 103.49 90.3893Z" fill="white"/>
<path opacity="0.4" d="M90.706 51.8779C90.706 50.5939 92.739 51.4199 94.986 50.8079C97.554 50.1017 100.447 48.0901 100.824 48.4282C101.53 49.0531 96.4327 53.7354 94.6308 53.7483C92.8289 53.7611 90.706 53.928 90.706 51.8779Z" fill="white"/>
<path opacity="0.4" d="M95.688 64.0374C95.4697 64.4654 96.972 64.0374 97.828 64.0374C98.684 64.0374 115.744 49.0574 115.804 48.7406C115.864 48.4239 96.6681 62.1542 95.688 64.0374Z" fill="white"/>
<path d="M106.183 64.5381L113.253 63.558C113.359 63.5443 113.458 63.495 113.533 63.4183C113.607 63.3415 113.654 63.2418 113.665 63.1352C113.676 63.0286 113.65 62.9215 113.593 62.8312C113.535 62.7409 113.448 62.6728 113.347 62.6378L109.889 61.4094C109.714 61.3495 106.829 62.7833 106.183 64.5381Z" fill="#61118B"/>
<path d="M85.1378 79.2528C85.1378 79.2528 90.1111 81.4227 91.0185 80.2414C91.5449 79.5652 89.6104 77.1213 89.6104 77.1213L85.1378 79.2528Z" fill="#61118B"/>
<path d="M88.4334 69.4088C88.4334 69.4088 94.4725 70.4659 94.3141 70.2305C94.1557 69.9951 92.4309 66.7038 92.0414 66.8579C91.6519 67.012 88.198 68.052 88.4334 69.4088Z" fill="#61118B"/>
<path d="M75.7047 119.712C75.7047 119.712 85.3603 125.768 105.592 125.768C125.823 125.768 137.816 118.517 137.816 118.517" stroke="#263238" stroke-linecap="round" stroke-linejoin="round"/>
<path d="M45.1925 154.273C45.1726 146.397 45.1726 138.521 45.1925 130.643" stroke="#263238" stroke-linecap="round" stroke-linejoin="round"/>
<path d="M45.2139 160.8C45.2139 160.303 45.2139 159.807 45.2139 159.31" stroke="#263238" stroke-linecap="round" stroke-linejoin="round"/>
<path d="M47.2469 165.332V166.92" stroke="#263238" stroke-linecap="round" stroke-linejoin="round"/>
<path d="M47.264 160.667C47.264 161.763 47.264 162.858 47.264 163.954" stroke="#263238" stroke-linecap="round" stroke-linejoin="round"/>
<path d="M47.2897 143.718C47.2897 148.569 47.2897 153.419 47.2897 158.27" stroke="#263238" stroke-linecap="round" stroke-linejoin="round"/>
<path d="M47.2469 130.643C47.2698 134.403 47.284 138.167 47.2897 141.933" stroke="#263238" stroke-linecap="round" stroke-linejoin="round"/>
<path d="M46.224 129.932C45.9487 129.924 45.683 129.829 45.4642 129.661C45.2455 129.494 45.0847 129.262 45.0044 128.999C44.9242 128.735 44.9284 128.453 45.0167 128.192C45.1049 127.931 45.2727 127.705 45.4964 127.544" stroke="#263238" stroke-linecap="round" stroke-linejoin="round"/>
<path d="M46.224 127.3C46.4711 127.302 46.7126 127.374 46.9209 127.507C47.1292 127.64 47.296 127.829 47.4022 128.052C47.5084 128.275 47.5498 128.523 47.5215 128.769C47.4933 129.014 47.3967 129.247 47.2426 129.44" stroke="#263238" stroke-linecap="round" stroke-linejoin="round"/>
<path d="M44.2552 133.031C44.2552 133.031 40.1935 138.775 32.6307 139.528" stroke="#263238" stroke-linecap="round" stroke-linejoin="round"/>
<path d="M41.4175 138.672C39.6752 140.204 37.6181 141.334 35.3913 141.985" stroke="#263238" stroke-linecap="round" stroke-linejoin="round"/>
<path d="M44.2552 135.475C43.9035 135.998 43.5204 136.5 43.1082 136.977" stroke="#263238" stroke-linecap="round" stroke-linejoin="round"/>
<path d="M48.3212 132.025C48.3212 132.025 64.4012 137.752 71.3733 132.248" stroke="#263238" stroke-linecap="round" stroke-linejoin="round"/>
<path d="M53.2946 135.963C58.8842 137.157 66.1346 138.103 71.1507 134.636" stroke="#263238" stroke-linecap="round" stroke-linejoin="round"/>
<path d="M48.3212 134.636C49.4469 135.013 50.5982 135.325 51.7452 135.608" stroke="#263238" stroke-linecap="round" stroke-linejoin="round"/>
<path d="M168.807 154.273C168.827 146.397 168.82 138.521 168.786 130.643" stroke="#263238" stroke-linecap="round" stroke-linejoin="round"/>
<path d="M168.786 160.8C168.786 160.303 168.786 159.807 168.786 159.31" stroke="#263238" stroke-linecap="round" stroke-linejoin="round"/>
<path d="M166.753 165.332V166.92" stroke="#263238" stroke-linecap="round" stroke-linejoin="round"/>
<path d="M166.736 160.667C166.736 161.763 166.736 162.858 166.736 163.954" stroke="#263238" stroke-linecap="round" stroke-linejoin="round"/>
<path d="M166.71 143.718C166.71 148.569 166.71 153.419 166.71 158.27" stroke="#263238" stroke-linecap="round" stroke-linejoin="round"/>
<path d="M166.753 130.643C166.73 134.403 166.716 138.167 166.71 141.933" stroke="#263238" stroke-linecap="round" stroke-linejoin="round"/>
<path d="M167.776 129.932C168.051 129.924 168.317 129.829 168.536 129.661C168.754 129.494 168.915 129.262 168.996 128.999C169.076 128.735 169.072 128.453 168.983 128.192C168.895 127.931 168.727 127.705 168.504 127.544" stroke="#263238" stroke-linecap="round" stroke-linejoin="round"/>
<path d="M167.776 127.3C167.529 127.302 167.287 127.374 167.079 127.507C166.871 127.64 166.704 127.829 166.598 128.052C166.492 128.275 166.45 128.523 166.478 128.769C166.507 129.014 166.603 129.247 166.757 129.44" stroke="#263238" stroke-linecap="round" stroke-linejoin="round"/>
<path d="M169.745 133.031C169.745 133.031 173.807 138.775 181.369 139.507" stroke="#263238" stroke-linecap="round" stroke-linejoin="round"/>
<path d="M172.582 138.672C174.325 140.204 176.382 141.334 178.609 141.985" stroke="#263238" stroke-linecap="round" stroke-linejoin="round"/>
<path d="M169.745 135.475C170.097 135.998 170.48 136.5 170.892 136.977" stroke="#263238" stroke-linecap="round" stroke-linejoin="round"/>
<path d="M165.679 132.025C165.679 132.025 149.599 137.752 142.627 132.248" stroke="#263238" stroke-linecap="round" stroke-linejoin="round"/>
<path d="M160.705 135.963C155.116 137.157 147.865 138.103 142.849 134.636" stroke="#263238" stroke-linecap="round" stroke-linejoin="round"/>
<path d="M165.679 134.636C164.553 135.013 163.402 135.325 162.255 135.608" stroke="#263238" stroke-linecap="round" stroke-linejoin="round"/>
<path d="M30.5592 166.646V138.903C30.5592 138.336 30.7847 137.791 31.186 137.39C31.5873 136.989 32.1316 136.763 32.6992 136.763C33.2668 136.763 33.8111 136.989 34.2124 137.39C34.6137 137.791 34.8392 138.336 34.8392 138.903V169.214" fill="#999999"/>
<mask id="mask3_83_3525" style="mask-type:luminance" maskUnits="userSpaceOnUse" x="30" y="136" width="5" height="34">
<path d="M30.5592 166.646V138.903C30.5592 138.336 30.7847 137.791 31.186 137.39C31.5873 136.989 32.1316 136.763 32.6992 136.763C33.2668 136.763 33.8111 136.989 34.2124 137.39C34.6137 137.791 34.8392 138.336 34.8392 138.903V169.214" fill="white"/>
</mask>
<g mask="url(#mask3_83_3525)">
<path opacity="0.3" d="M34.8435 141.317V169.214H30.5635V147.142C31.8083 144.701 32.8117 142.143 33.5595 139.507L34.8435 141.317Z" fill="black" fill-opacity="0.7"/>
</g>
<path d="M30.5592 166.646V138.903C30.5592 138.336 30.7847 137.791 31.186 137.39C31.5873 136.989 32.1316 136.763 32.6992 136.763C33.2668 136.763 33.8111 136.989 34.2124 137.39C34.6137 137.791 34.8392 138.336 34.8392 138.903V169.214" stroke="#263238" stroke-linecap="round" stroke-linejoin="round"/>
<path d="M35.096 135.436C35.0959 136.019 34.8842 136.582 34.5001 137.021C34.1161 137.459 33.5858 137.743 33.008 137.82C32.4302 137.897 31.8441 137.762 31.3587 137.439C30.8733 137.116 30.5216 136.628 30.3691 136.065C30.2166 135.503 30.2735 134.904 30.5294 134.38C30.7853 133.856 31.2226 133.443 31.7602 133.218C32.2977 132.992 32.8988 132.97 33.4518 133.154C34.0048 133.339 34.4719 133.718 34.7664 134.221C34.9853 134.588 35.0992 135.009 35.096 135.436Z" fill="#999999"/>
<mask id="mask4_83_3525" style="mask-type:luminance" maskUnits="userSpaceOnUse" x="30" y="133" width="6" height="5">
<path d="M35.096 135.436C35.0959 136.019 34.8842 136.582 34.5001 137.021C34.1161 137.459 33.5858 137.743 33.008 137.82C32.4302 137.897 31.8441 137.762 31.3587 137.439C30.8733 137.116 30.5216 136.628 30.3691 136.065C30.2166 135.503 30.2735 134.904 30.5294 134.38C30.7853 133.856 31.2226 133.443 31.7602 133.218C32.2977 132.992 32.8988 132.97 33.4518 133.154C34.0048 133.339 34.4719 133.718 34.7664 134.221C34.9853 134.588 35.0992 135.009 35.096 135.436Z" fill="white"/>
</mask>
<g mask="url(#mask4_83_3525)">
<path opacity="0.3" d="M35.096 135.436C35.1039 136.016 34.9021 136.579 34.5277 137.022C34.1532 137.465 33.6314 137.758 33.0582 137.846C32.4851 137.935 31.8993 137.813 31.4086 137.504C30.9179 137.195 30.5555 136.719 30.388 136.164C31.6078 136.592 33.17 136.374 34.7579 134.221C34.9797 134.587 35.0967 135.008 35.096 135.436Z" fill="black" fill-opacity="0.7"/>
</g>
<path d="M35.096 135.436C35.0959 136.019 34.8842 136.582 34.5001 137.021C34.1161 137.459 33.5858 137.743 33.008 137.82C32.4302 137.897 31.8441 137.762 31.3587 137.439C30.8733 137.116 30.5216 136.628 30.3691 136.065C30.2166 135.503 30.2735 134.904 30.5294 134.38C30.7853 133.856 31.2226 133.443 31.7602 133.218C32.2977 132.992 32.8988 132.97 33.4518 133.154C34.0048 133.339 34.4719 133.718 34.7664 134.221C34.9853 134.588 35.0992 135.009 35.096 135.436Z" stroke="#263238" stroke-linecap="round" stroke-linejoin="round"/>
<path d="M106.666 149.663V154.705C106.666 154.705 85.1934 161.514 64.1957 157.453C43.198 153.391 33.5509 143.996 33.5509 143.996V139.528C34.0174 139.922 61.632 164.271 106.666 149.663Z" fill="#61118B"/>
<mask id="mask5_83_3525" style="mask-type:luminance" maskUnits="userSpaceOnUse" x="33" y="139" width="74" height="20">
<path d="M106.666 149.663V154.705C106.666 154.705 85.1934 161.514 64.1957 157.453C43.198 153.391 33.5509 143.996 33.5509 143.996V139.528C34.0174 139.922 61.632 164.271 106.666 149.663Z" fill="white"/>
</mask>
<g mask="url(#mask5_83_3525)">
<path opacity="0.3" d="M106.666 150.284V154.705C106.666 154.705 85.1934 161.514 64.1957 157.453C43.198 153.391 33.5509 143.996 33.5509 143.996V139.528C33.8163 139.84 42.3934 149.937 62.9502 153.755C83.8409 157.62 101.158 153.224 106.666 150.284Z" fill="black" fill-opacity="0.7"/>
</g>
<path d="M106.666 149.663V154.705C106.666 154.705 85.1934 161.514 64.1957 157.453C43.198 153.391 33.5509 143.996 33.5509 143.996V139.528C34.0174 139.922 61.632 164.271 106.666 149.663Z" stroke="#263238" stroke-linecap="round" stroke-linejoin="round"/>
<path d="M183.441 178.202V138.903C183.441 138.336 183.215 137.791 182.814 137.39C182.413 136.989 181.868 136.763 181.301 136.763C180.733 136.763 180.189 136.989 179.788 137.39C179.386 137.791 179.161 138.336 179.161 138.903V181.626" fill="#999999"/>
<mask id="mask6_83_3525" style="mask-type:luminance" maskUnits="userSpaceOnUse" x="179" y="136" width="5" height="46">
<path d="M183.441 178.202V138.903C183.441 138.336 183.215 137.791 182.814 137.39C182.413 136.989 181.868 136.763 181.301 136.763C180.733 136.763 180.189 136.989 179.788 137.39C179.386 137.791 179.161 138.336 179.161 138.903V181.626" fill="white"/>
</mask>
<g mask="url(#mask6_83_3525)">
<path opacity="0.3" d="M179.152 141.317V181.626L183.432 178.202V147.142C182.187 144.701 181.184 142.143 180.436 139.507L179.152 141.317Z" fill="black" fill-opacity="0.7"/>
</g>
<path d="M183.441 178.202V138.903C183.441 138.336 183.215 137.791 182.814 137.39C182.413 136.989 181.868 136.763 181.301 136.763C180.733 136.763 180.189 136.989 179.788 137.39C179.386 137.791 179.161 138.336 179.161 138.903V181.626" stroke="#263238" stroke-linecap="round" stroke-linejoin="round"/>
<path d="M178.904 135.436C178.896 136.016 179.098 136.579 179.472 137.022C179.847 137.465 180.369 137.758 180.942 137.846C181.515 137.935 182.101 137.813 182.591 137.504C183.082 137.195 183.445 136.719 183.612 136.164C183.689 135.929 183.728 135.683 183.728 135.436C183.728 134.908 183.554 134.394 183.233 133.975C182.912 133.555 182.462 133.253 181.952 133.115C181.442 132.976 180.901 133.01 180.412 133.21C179.923 133.41 179.513 133.765 179.246 134.221C179.023 134.587 178.905 135.007 178.904 135.436Z" fill="#999999"/>
<mask id="mask7_83_3525" style="mask-type:luminance" maskUnits="userSpaceOnUse" x="178" y="133" width="6" height="5">
<path d="M178.904 135.436C178.896 136.016 179.098 136.579 179.472 137.022C179.847 137.465 180.369 137.758 180.942 137.846C181.515 137.935 182.101 137.813 182.591 137.504C183.082 137.195 183.445 136.719 183.612 136.164C183.689 135.929 183.728 135.683 183.728 135.436C183.728 134.908 183.554 134.394 183.233 133.975C182.912 133.555 182.462 133.253 181.952 133.115C181.442 132.976 180.901 133.01 180.412 133.21C179.923 133.41 179.513 133.765 179.246 134.221C179.023 134.587 178.905 135.007 178.904 135.436Z" fill="white"/>
</mask>
<g mask="url(#mask7_83_3525)">
<path opacity="0.3" d="M178.904 135.436C178.896 136.016 179.098 136.579 179.472 137.022C179.847 137.465 180.369 137.758 180.942 137.846C181.515 137.935 182.101 137.813 182.591 137.504C183.082 137.195 183.445 136.719 183.612 136.164C182.392 136.592 180.83 136.374 179.246 134.221C179.023 134.587 178.905 135.007 178.904 135.436Z" fill="black" fill-opacity="0.7"/>
</g>
<path d="M178.904 135.436C178.896 136.016 179.098 136.579 179.472 137.022C179.847 137.465 180.369 137.758 180.942 137.846C181.515 137.935 182.101 137.813 182.591 137.504C183.082 137.195 183.445 136.719 183.612 136.164C183.689 135.929 183.728 135.683 183.728 135.436C183.728 134.908 183.554 134.394 183.233 133.975C182.912 133.555 182.462 133.253 181.952 133.115C181.442 132.976 180.901 133.01 180.412 133.21C179.923 133.41 179.513 133.765 179.246 134.221C179.023 134.587 178.905 135.007 178.904 135.436Z" stroke="#263238" stroke-linecap="round" stroke-linejoin="round"/>
<path d="M107.334 149.663V154.705C107.334 154.705 128.828 161.514 149.8 157.453C170.772 153.391 180.449 143.996 180.449 143.996V139.528C179.983 139.922 152.368 164.271 107.334 149.663Z" fill="#61118B"/>
<mask id="mask8_83_3525" style="mask-type:luminance" maskUnits="userSpaceOnUse" x="107" y="139" width="74" height="20">
<path d="M107.334 149.663V154.705C107.334 154.705 128.828 161.514 149.8 157.453C170.772 153.391 180.449 143.996 180.449 143.996V139.528C179.983 139.922 152.368 164.271 107.334 149.663Z" fill="white"/>
</mask>
<g mask="url(#mask8_83_3525)">
<path opacity="0.3" d="M107.334 150.284V154.705C107.334 154.705 128.828 161.514 149.8 157.453C170.772 153.391 180.449 143.996 180.449 143.996V139.528C180.188 139.84 171.607 149.937 151.054 153.755C130.159 157.62 112.842 153.224 107.334 150.284Z" fill="black" fill-opacity="0.7"/>
</g>
<path d="M107.334 149.663V154.705C107.334 154.705 128.828 161.514 149.8 157.453C170.772 153.391 180.449 143.996 180.449 143.996V139.528C179.983 139.922 152.368 164.271 107.334 149.663Z" stroke="#263238" stroke-linecap="round" stroke-linejoin="round"/>
<path d="M104.86 196.178V147.463C104.851 146.956 105.024 146.462 105.346 146.069C105.668 145.677 106.119 145.412 106.618 145.322C107.117 145.231 107.633 145.321 108.072 145.575C108.511 145.83 108.846 146.232 109.016 146.71C109.109 146.95 109.156 147.206 109.153 147.463V198.746" fill="#999999"/>
<mask id="mask9_83_3525" style="mask-type:luminance" maskUnits="userSpaceOnUse" x="104" y="145" width="6" height="54">
<path d="M104.86 196.178V147.463C104.851 146.956 105.024 146.462 105.346 146.069C105.668 145.677 106.119 145.412 106.618 145.322C107.117 145.231 107.633 145.321 108.072 145.575C108.511 145.83 108.846 146.232 109.016 146.71C109.109 146.95 109.156 147.206 109.153 147.463V198.746" fill="white"/>
</mask>
<g mask="url(#mask9_83_3525)">
<path opacity="0.3" d="M109.007 146.71C108.151 147.587 107.013 148.133 105.793 148.251C105.793 148.251 106.735 179.743 105.793 190.195C105.673 191.479 104.851 195.331 104.851 195.331V147.463C104.843 146.956 105.015 146.462 105.337 146.069C105.659 145.677 106.11 145.412 106.609 145.322C107.109 145.231 107.624 145.321 108.063 145.575C108.503 145.83 108.837 146.232 109.007 146.71Z" fill="black" fill-opacity="0.7"/>
</g>
<path d="M104.86 196.178V147.463C104.851 146.956 105.024 146.462 105.346 146.069C105.668 145.677 106.119 145.412 106.618 145.322C107.117 145.231 107.633 145.321 108.072 145.575C108.511 145.83 108.846 146.232 109.016 146.71C109.109 146.95 109.156 147.206 109.153 147.463V198.746" stroke="#263238" stroke-linecap="round" stroke-linejoin="round"/>
<path d="M109.41 143.996C109.383 144.617 109.118 145.204 108.67 145.634C108.221 146.064 107.624 146.304 107.002 146.304C106.381 146.304 105.783 146.064 105.335 145.634C104.886 145.204 104.621 144.617 104.595 143.996C104.593 143.965 104.593 143.934 104.595 143.902C104.607 143.264 104.873 142.657 105.332 142.215C105.792 141.773 106.409 141.531 107.047 141.544C107.685 141.556 108.292 141.822 108.734 142.282C109.176 142.742 109.418 143.358 109.405 143.996H109.41Z" fill="#999999"/>
<mask id="mask10_83_3525" style="mask-type:luminance" maskUnits="userSpaceOnUse" x="104" y="141" width="6" height="6">
<path d="M109.41 143.996C109.383 144.617 109.118 145.204 108.67 145.634C108.221 146.064 107.624 146.304 107.002 146.304C106.381 146.304 105.783 146.064 105.335 145.634C104.886 145.204 104.621 144.617 104.595 143.996C104.593 143.965 104.593 143.934 104.595 143.902C104.607 143.264 104.873 142.657 105.332 142.215C105.792 141.773 106.409 141.531 107.047 141.544C107.685 141.556 108.292 141.822 108.734 142.282C109.176 142.742 109.418 143.358 109.405 143.996H109.41Z" fill="white"/>
</mask>
<g mask="url(#mask10_83_3525)">
<path opacity="0.3" d="M109.2 144.976C108.977 145.482 108.586 145.894 108.095 146.146C107.603 146.397 107.039 146.471 106.499 146.356C105.959 146.241 105.475 145.944 105.128 145.514C104.781 145.085 104.593 144.549 104.595 143.996C104.593 143.965 104.593 143.934 104.595 143.902C105.541 144.792 107 145.464 109.2 144.976Z" fill="black" fill-opacity="0.7"/>
</g>
<path d="M109.41 143.996C109.383 144.617 109.118 145.204 108.67 145.634C108.221 146.064 107.624 146.304 107.002 146.304C106.381 146.304 105.783 146.064 105.335 145.634C104.886 145.204 104.621 144.617 104.595 143.996C104.593 143.965 104.593 143.934 104.595 143.902C104.607 143.264 104.873 142.657 105.332 142.215C105.792 141.773 106.409 141.531 107.047 141.544C107.685 141.556 108.292 141.822 108.734 142.282C109.176 142.742 109.418 143.358 109.405 143.996H109.41Z" stroke="#263238" stroke-linecap="round" stroke-linejoin="round"/>
<path d="M158.912 163.838L156.738 173.13C156.738 173.13 154.196 175.001 153.284 174.71C152.372 174.419 153.001 173.426 153.044 173.37C152.743 173.595 152.37 173.702 151.996 173.67C151.35 173.63 150.715 173.486 150.117 173.242C150.117 173.242 149.595 173.836 149.081 173.738C148.567 173.64 147.279 172.578 147.279 172.578C146.32 172.852 145.302 171.56 145.302 171.56C145.193 171.41 145.116 171.239 145.075 171.059C144.882 170.359 144.757 169.642 144.703 168.919C144.506 166.71 144.758 163.761 146.594 162.743L158.912 163.838Z" fill="white"/>
<mask id="mask11_83_3525" style="mask-type:luminance" maskUnits="userSpaceOnUse" x="144" y="162" width="15" height="13">
<path d="M158.912 163.838L156.738 173.13C156.738 173.13 154.196 175.001 153.284 174.71C152.372 174.419 153.001 173.426 153.044 173.37C152.743 173.595 152.37 173.702 151.996 173.67C151.35 173.63 150.715 173.486 150.117 173.242C150.117 173.242 149.595 173.836 149.081 173.738C148.567 173.64 147.279 172.578 147.279 172.578C146.32 172.852 145.302 171.56 145.302 171.56C145.193 171.41 145.116 171.239 145.075 171.059C144.882 170.359 144.757 169.642 144.703 168.919C144.506 166.71 144.758 163.761 146.594 162.743L158.912 163.838Z" fill="white"/>
</mask>
<g mask="url(#mask11_83_3525)">
<path opacity="0.4" d="M158.912 163.839L156.738 173.13C156.738 173.13 154.196 175.001 153.284 174.71C152.372 174.419 153.001 173.426 153.044 173.37C152.743 173.596 152.37 173.702 151.996 173.67C151.35 173.63 150.715 173.486 150.117 173.242C150.117 173.242 149.595 173.837 149.081 173.738C148.567 173.64 147.279 172.578 147.279 172.578C146.32 172.852 145.302 171.56 145.302 171.56C145.193 171.41 145.116 171.239 145.075 171.059C145.503 171.384 146.102 171.748 146.573 171.436C146.686 171.61 146.839 171.756 147.019 171.861C147.199 171.966 147.401 172.027 147.609 172.04C147.817 172.053 148.026 172.017 148.217 171.935C148.409 171.853 148.578 171.727 148.713 171.568C148.713 171.568 150.819 172.942 152.081 171.363C152.706 171.522 153.339 171.645 153.977 171.731C154.358 171.731 154.273 166.141 154.273 166.141C154.273 166.141 152.638 167.284 152.081 166.693C151.525 166.103 148.73 167.75 148.049 167.836C146.913 168.138 145.794 168.504 144.698 168.932C144.501 166.723 144.754 163.774 146.59 162.756L158.912 163.839Z" fill="#61118B"/>
</g>
<path d="M158.912 163.838L156.738 173.13C156.738 173.13 154.196 175.001 153.284 174.71C152.372 174.419 153.001 173.426 153.044 173.37C152.743 173.595 152.37 173.702 151.996 173.67C151.35 173.63 150.715 173.486 150.117 173.242C150.117 173.242 149.595 173.836 149.081 173.738C148.567 173.64 147.279 172.578 147.279 172.578C146.32 172.852 145.302 171.56 145.302 171.56C145.193 171.41 145.116 171.239 145.075 171.059C144.882 170.359 144.757 169.642 144.703 168.919C144.506 166.71 144.758 163.761 146.594 162.743L158.912 163.838Z" stroke="#263238" stroke-linecap="round" stroke-linejoin="round"/>
<path d="M153.16 167.284C153.16 167.284 152.12 171.114 152.086 171.868C152.051 172.621 153.049 173.366 153.049 173.366C153.049 173.366 154.273 173.554 154.761 172.972C155.248 172.39 155.873 170.164 155.873 170.164" stroke="#263238" stroke-linecap="round" stroke-linejoin="round"/>
<path d="M150.117 173.229C150.117 173.229 148.696 171.945 148.717 171.555C148.739 171.166 149.53 168.071 149.53 168.071" stroke="#263238" stroke-linecap="round" stroke-linejoin="round"/>
<path d="M147.279 172.565C147.012 172.205 146.776 171.822 146.573 171.423C146.44 171.067 146.492 168.504 146.492 168.504" stroke="#263238" stroke-linecap="round" stroke-linejoin="round"/>
<path d="M162.482 128.259C161.531 129.247 160.068 129.718 158.981 131.477C153.049 141.039 152.347 147.155 149.59 154.589C146.834 162.024 137.135 170.853 133.549 164.994C129.962 159.135 138.604 147.844 142.806 142.922C147.009 138 151.187 132.77 151.854 130.574C151.957 130.249 153.438 128.135 153.408 127.514C153.378 126.893 155.274 121.522 155.831 121.175C156.995 120.426 157.192 120.379 157.38 119.652C157.611 118.766 158.531 118.714 159.948 117.169C160.031 117.08 160.142 117.022 160.262 117.003C160.382 116.985 160.505 117.007 160.611 117.067C161.206 117.302 161.921 118.128 162.323 118.552C163.38 119.609 162.503 121.068 162.503 121.068L161.022 120.174C161.07 120.707 161.171 121.235 161.322 121.749C161.322 121.749 161.322 121.749 161.322 121.77C161.609 122.746 162.178 123.91 163.222 124.462C164.921 125.365 162.64 128.105 162.482 128.259Z" fill="white"/>
<mask id="mask12_83_3525" style="mask-type:luminance" maskUnits="userSpaceOnUse" x="132" y="116" width="32" height="51">
<path d="M162.482 128.259C161.531 129.247 160.068 129.718 158.981 131.477C153.049 141.039 152.347 147.155 149.59 154.589C146.834 162.024 137.135 170.853 133.549 164.994C129.962 159.135 138.604 147.844 142.806 142.922C147.009 138 151.187 132.77 151.854 130.574C151.957 130.249 153.438 128.135 153.408 127.514C153.378 126.893 155.274 121.522 155.831 121.175C156.995 120.426 157.192 120.379 157.38 119.652C157.611 118.766 158.531 118.714 159.948 117.169C160.031 117.08 160.142 117.022 160.262 117.003C160.382 116.985 160.505 117.007 160.611 117.067C161.206 117.302 161.921 118.128 162.323 118.552C163.38 119.609 162.503 121.068 162.503 121.068L161.022 120.174C161.07 120.707 161.171 121.235 161.322 121.749C161.322 121.749 161.322 121.749 161.322 121.77C161.609 122.746 162.178 123.91 163.222 124.462C164.921 125.365 162.64 128.105 162.482 128.259Z" fill="white"/>
</mask>
<g mask="url(#mask12_83_3525)">
<path opacity="0.4" d="M162.512 121.085L161.031 120.191C161.079 120.725 161.179 121.252 161.33 121.766L160.247 118.984C160.602 118.423 160.729 117.748 160.603 117.097C161.198 117.332 161.912 118.158 162.315 118.582C163.389 119.626 162.512 121.085 162.512 121.085Z" fill="#61118B"/>
</g>
<path d="M162.482 128.259C161.531 129.247 160.068 129.718 158.981 131.477C153.049 141.039 152.347 147.155 149.59 154.589C146.834 162.024 137.135 170.853 133.549 164.994C129.962 159.135 138.604 147.844 142.806 142.922C147.009 138 151.187 132.77 151.854 130.574C151.957 130.249 153.438 128.135 153.408 127.514C153.378 126.893 155.274 121.522 155.831 121.175C156.995 120.426 157.192 120.379 157.38 119.652C157.611 118.766 158.531 118.714 159.948 117.169C160.031 117.08 160.142 117.022 160.262 117.003C160.382 116.985 160.505 117.007 160.611 117.067C161.206 117.302 161.921 118.128 162.323 118.552C163.38 119.609 162.503 121.068 162.503 121.068L161.022 120.174C161.07 120.707 161.171 121.235 161.322 121.749C161.322 121.749 161.322 121.749 161.322 121.77C161.609 122.746 162.178 123.91 163.222 124.462C164.921 125.365 162.64 128.105 162.482 128.259Z" stroke="#263238" stroke-linecap="round" stroke-linejoin="round"/>
<path d="M185.063 128.76L170.738 132.025C170.738 132.025 171.418 125.096 169.762 123.893C168.812 123.196 166.856 124.45 165.054 123.893C164.795 123.818 164.548 123.706 164.322 123.559C162.49 122.322 160.543 117.191 160.521 110.839C160.521 109.808 161.026 107.026 161.095 105.973C161.382 101.641 159.704 98.9707 163.179 94.7378C170.344 86.028 184.926 87.74 187.746 94.4639C190.567 101.188 182.054 111.798 182.123 117.576C182.161 120.525 185.063 128.76 185.063 128.76Z" fill="white" stroke="#263238" stroke-linecap="round" stroke-linejoin="round"/>
<path d="M167.896 87.1066C167.896 87.1066 159.798 89.8458 159.854 95.2771C159.909 100.708 161.039 103.709 163.111 103.97C165.182 104.231 164.553 108.447 164.553 108.447C164.553 108.447 168.003 109.2 168.516 111.648C169.03 114.096 172.844 118.359 172.844 118.359C172.844 118.359 181.404 119.408 183.573 117.807C185.743 116.206 191.774 97.0276 188.281 92.4737C184.789 87.9198 173.34 87.8085 173.34 87.8085C171.622 87.0866 169.741 86.8441 167.896 87.1066Z" fill="#263238"/>
<path d="M165.208 106.859C165.208 106.859 164.831 105.185 166.441 104.967C167.297 104.851 167.725 107.535 167.725 107.535C167.725 107.535 168.217 107.616 168.649 109.898C169.081 112.179 167.066 113.874 167.066 113.874C167.066 113.874 166.458 116.493 165.619 115.556C164.605 114.422 166.638 112.718 165.94 110.206" fill="white"/>
<path d="M165.208 106.859C165.208 106.859 164.831 105.185 166.441 104.967C167.297 104.851 167.725 107.535 167.725 107.535C167.725 107.535 168.217 107.616 168.649 109.898C169.081 112.179 167.066 113.874 167.066 113.874C167.066 113.874 166.458 116.493 165.619 115.556C164.605 114.422 166.638 112.718 165.94 110.206" stroke="#263238" stroke-linecap="round" stroke-linejoin="round"/>
<path d="M167.66 108.609C167.828 110.391 167.628 112.189 167.074 113.891" stroke="#263238" stroke-linecap="round" stroke-linejoin="round"/>
<path d="M170.669 121.261C169.963 122.074 169.762 123.889 169.762 123.889C169.762 123.889 166.856 124.445 165.054 123.889C166.92 122.464 170.524 121.308 170.669 121.261Z" fill="#263238"/>
<path d="M162.37 123.88C162.518 124.067 162.702 124.222 162.911 124.336C163.119 124.451 163.348 124.523 163.585 124.548C163.822 124.573 164.061 124.551 164.289 124.482C164.517 124.414 164.729 124.301 164.913 124.15C165.555 123.679 166.954 123.097 167.909 123.619C168.863 124.141 168.897 125.177 168.118 125.331C167.339 125.485 165.503 126.859 164.506 127.724C163.509 128.588 160.684 129.633 160.684 129.633" fill="white"/>
<path d="M162.37 123.88C162.518 124.067 162.702 124.222 162.911 124.336C163.119 124.451 163.348 124.523 163.585 124.548C163.822 124.573 164.061 124.551 164.289 124.482C164.517 124.414 164.729 124.301 164.913 124.15C165.555 123.679 166.954 123.097 167.909 123.619C168.863 124.141 168.897 125.177 168.118 125.331C167.339 125.485 165.503 126.859 164.506 127.724C163.509 128.588 160.684 129.633 160.684 129.633" stroke="#263238" stroke-linecap="round" stroke-linejoin="round"/>
<path d="M161.758 122.87C161.758 122.87 161.151 122.25 161.031 120.191C160.971 119.138 159.845 118.774 159.845 118.774" stroke="#263238" stroke-linecap="round" stroke-linejoin="round"/>
<path d="M160.714 119.373C160.818 119.201 160.88 119.007 160.895 118.806C160.909 118.605 160.877 118.404 160.8 118.218" stroke="#263238" stroke-linecap="round" stroke-linejoin="round"/>
<path d="M137.328 157.504C142.289 150.344 144.048 150.703 153.528 144.989L162.798 159.16C162.798 159.16 160.564 160.209 157.705 161.574C154.362 163.171 150.172 165.195 147.728 166.466C143.196 168.816 135.214 169.227 134.161 167.892C134.057 167.755 133.963 167.612 133.878 167.464C132.988 166.017 132.445 163.487 132.74 160.86" fill="white"/>
<mask id="mask13_83_3525" style="mask-type:luminance" maskUnits="userSpaceOnUse" x="132" y="144" width="31" height="25">
<path d="M137.328 157.504C142.289 150.344 144.048 150.703 153.528 144.989L162.798 159.16C162.798 159.16 160.564 160.209 157.705 161.574C154.362 163.171 150.172 165.195 147.728 166.466C143.196 168.816 135.214 169.227 134.161 167.892C134.057 167.755 133.963 167.612 133.878 167.464C132.988 166.017 132.445 163.487 132.74 160.86" fill="white"/>
</mask>
<g mask="url(#mask13_83_3525)">
<path opacity="0.4" d="M158.326 159.931L157.705 161.553C154.362 163.149 150.172 165.174 147.728 166.445C143.196 168.795 135.214 169.206 134.161 167.87C134.057 167.734 133.963 167.591 133.878 167.442C138.116 167.07 145.233 164.536 145.233 164.536C143.876 159.289 147.728 150.485 147.728 150.485L158.326 159.931Z" fill="#61118B"/>
</g>
<path d="M137.328 157.504C142.289 150.344 144.048 150.703 153.528 144.989L162.798 159.16C162.798 159.16 160.564 160.209 157.705 161.574C154.362 163.171 150.172 165.195 147.728 166.466C143.196 168.816 135.214 169.227 134.161 167.892C134.057 167.755 133.963 167.612 133.878 167.464C132.988 166.017 132.445 163.487 132.74 160.86" stroke="#263238" stroke-linecap="round" stroke-linejoin="round"/>
<path d="M197.201 157.157C197.201 157.157 198.823 147.831 196.572 138.291C194.321 128.751 188.217 127.814 188.217 127.814C188.217 127.814 185.735 123.234 182.842 124.009C171.752 127.005 168.91 131.918 168.91 131.918C168.91 131.918 160.132 132.843 155.848 137.765C151.563 142.687 147.146 148.276 147.146 148.276C147.146 148.276 143.063 161.972 153.528 164.968C153.528 164.968 154.208 168.645 155.317 170.905L153.982 195.956C164.934 194.402 188.32 180.672 197.201 157.157Z" fill="#263238"/>
<g opacity="0.2">
<path d="M163.667 140.384C163.332 139.313 162.886 138.28 162.336 137.302" stroke="white" stroke-linecap="round" stroke-linejoin="round"/>
<path d="M154.773 164.836C159.216 166.064 162.212 160.5 165.208 157.932C167.348 152.796 165.208 147.232 164.147 141.895" stroke="white" stroke-linecap="round" stroke-linejoin="round"/>
<path d="M154.773 141.852C154.773 141.852 151.384 148.944 151.161 155.364" stroke="white" stroke-linecap="round" stroke-linejoin="round"/>
<path d="M173.687 131.914C178.236 131.623 183.394 131.105 187.383 128.734" stroke="white" stroke-linecap="round" stroke-linejoin="round"/>
<path d="M170.738 132.025C171.191 132.025 171.645 132.025 172.099 131.991" stroke="white" stroke-linecap="round" stroke-linejoin="round"/>
<path d="M181.356 133.142C183.291 133.181 185.739 133.194 187.396 132.025" stroke="white" stroke-linecap="round" stroke-linejoin="round"/>
<path d="M177.008 132.787C177.962 132.928 178.921 133.022 179.884 133.082" stroke="white" stroke-linecap="round" stroke-linejoin="round"/>
<path d="M174.757 172.912C174.314 174.025 173.926 175.155 173.593 176.302" stroke="white" stroke-linecap="round" stroke-linejoin="round"/>
<path d="M192.36 148.602C185.324 155.364 179.332 162.64 175.544 171.054" stroke="white" stroke-linecap="round" stroke-linejoin="round"/>
<path d="M157.958 185.559C157.735 187.794 157.501 190.029 157.256 192.266" stroke="white" stroke-linecap="round" stroke-linejoin="round"/>
<path d="M158.724 164.985C158.36 166.92 160.072 168.632 159.644 170.772C159.216 171.628 158.788 172.484 158.788 173.34C158.788 176.764 158.788 180.616 158.112 184.006" stroke="white" stroke-linecap="round" stroke-linejoin="round"/>
</g>
<g opacity="0.2">
<path d="M165.165 102.827C167.613 102.253 169.415 105.493 170.669 106.679C171.923 107.865 175.578 107.274 176.417 110.291" stroke="white" stroke-linecap="round" stroke-linejoin="round"/>
<path d="M162.336 96.4113C162.336 96.4113 164.129 100.563 166.124 100.392C168.118 100.22 170.832 100.096 172.116 102.827C173.4 105.558 179.225 105.155 179.567 107.261" stroke="white" stroke-linecap="round" stroke-linejoin="round"/>
<path d="M166.124 90.231C165.242 91.5877 165.914 96.835 167.866 96.835C169.818 96.835 171.94 96.835 172.741 98.7824C173.541 100.73 175.57 101.239 177.346 102.253" stroke="white" stroke-linecap="round" stroke-linejoin="round"/>
<path d="M188.32 99.968C188.32 99.968 188.354 102.42 186.912 102.759" stroke="white" stroke-linecap="round" stroke-linejoin="round"/>
<path d="M187.832 104.372C187.832 104.372 187.199 106.242 185.692 107" stroke="white" stroke-linecap="round" stroke-linejoin="round"/>
<path d="M186.912 108.134C186.912 108.134 186.574 109.534 185.307 109.705" stroke="white" stroke-linecap="round" stroke-linejoin="round"/>
</g>
<path d="M32.4809 169.488L54.8781 143.53C57.1166 139.828 59.706 133.078 60.1126 131.785C62.6806 123.701 62.0814 125.828 64.0245 122.797C65.9676 119.767 66.5668 114.965 69.4173 115.029H69.5414C72.4946 115.239 78.4866 116.258 78.2897 116.968C78.0929 117.679 81.4655 136.596 81.0161 136.956C80.5667 137.315 79.3041 144.232 79.3041 144.232C79.3041 144.232 75.9999 143.902 76.6077 141.257C76.6077 141.257 67.9364 152.103 64.8976 152.312C64.3113 152.351 58.4776 163.098 54.5186 170.481C52.4514 174.333 50.9063 177.286 50.9063 177.286" fill="white"/>
<mask id="mask14_83_3525" style="mask-type:luminance" maskUnits="userSpaceOnUse" x="32" y="115" width="50" height="63">
<path d="M32.4809 169.488L54.8781 143.53C57.1166 139.828 59.706 133.078 60.1126 131.785C62.6806 123.701 62.0814 125.828 64.0245 122.797C65.9676 119.767 66.5668 114.965 69.4173 115.029H69.5414C72.4946 115.239 78.4866 116.258 78.2897 116.968C78.0929 117.679 81.4655 136.596 81.0161 136.956C80.5667 137.315 79.3041 144.232 79.3041 144.232C79.3041 144.232 75.9999 143.902 76.6077 141.257C76.6077 141.257 67.9364 152.103 64.8976 152.312C64.3113 152.351 58.4776 163.098 54.5186 170.481C52.4514 174.333 50.9063 177.286 50.9063 177.286" fill="white"/>
</mask>
<g mask="url(#mask14_83_3525)">
<path opacity="0.4" d="M81.0161 136.96C80.5881 137.315 79.3041 144.236 79.3041 144.236C79.3041 144.236 75.9999 143.906 76.6077 141.261C76.6077 141.261 67.9364 152.107 64.8976 152.317C64.3112 152.355 58.4776 163.102 54.5186 170.485C55.7384 166.834 60.639 157.329 60.7203 157.11C60.6262 157.192 54.2532 165.195 54.0435 165.375C53.8338 165.555 61.8588 152.282 64.2342 151.439C66.6096 150.596 68.3901 146.967 68.3901 146.967C67.8483 147.186 67.2586 147.259 66.6797 147.179C66.1008 147.1 65.5528 146.87 65.0902 146.513C65.0902 146.513 64.6365 136.592 65.4882 132.475C66.34 128.357 65.5096 126.234 65.4454 126.055C65.3812 125.875 67.089 123.619 67.3843 121.394C67.6796 119.168 68.557 115.316 68.557 115.316L69.413 114.991H69.5371C72.4903 115.201 78.4823 116.219 78.2854 116.93C78.0886 117.64 81.4655 136.609 81.0161 136.96Z" fill="#61118B"/>
</g>
<path d="M32.4809 169.488L54.8781 143.53C57.1166 139.828 59.706 133.078 60.1126 131.785C62.6806 123.701 62.0814 125.828 64.0245 122.797C65.9676 119.767 66.5668 114.965 69.4173 115.029H69.5414C72.4946 115.239 78.4866 116.258 78.2897 116.968C78.0929 117.679 81.4655 136.596 81.0161 136.956C80.5667 137.315 79.3041 144.232 79.3041 144.232C79.3041 144.232 75.9999 143.902 76.6077 141.257C76.6077 141.257 67.9364 152.103 64.8976 152.312C64.3113 152.351 58.4776 163.098 54.5186 170.481C52.4514 174.333 50.9063 177.286 50.9063 177.286" stroke="#263238" stroke-linecap="round" stroke-linejoin="round"/>
<path d="M90.5348 143.478L70.62 140.739C70.1602 140.664 69.7431 140.425 69.4458 140.066C69.1484 139.708 68.9908 139.253 69.0021 138.788L68.4158 97.3358C68.4158 96.3557 70.0422 96.0175 70.9452 96.116L91.378 98.3673C91.837 98.4442 92.253 98.6837 92.55 99.0421C92.8471 99.4004 93.0053 99.8536 92.9958 100.319L92.6962 141.407C92.6705 142.374 91.4336 143.577 90.5348 143.478Z" fill="#263238"/>
<path d="M89.9142 143.496L69.4815 141.24C69.0225 141.161 68.6069 140.921 68.3101 140.562C68.0133 140.203 67.8549 139.75 67.8637 139.284L68.1633 98.1961C68.1508 97.9791 68.1851 97.762 68.264 97.5594C68.3428 97.3569 68.4643 97.1737 68.6202 97.0223C68.7761 96.8708 68.9628 96.7547 69.1675 96.6818C69.3722 96.6089 69.5903 96.5808 69.8068 96.5996L90.2395 98.868C90.6985 98.945 91.1145 99.1845 91.4116 99.5428C91.7086 99.9011 91.8668 100.354 91.8573 100.82L91.5577 141.908C91.5689 142.124 91.5336 142.34 91.4542 142.542C91.3748 142.743 91.2531 142.925 91.0974 143.076C90.9416 143.226 90.7554 143.342 90.5513 143.414C90.3472 143.486 90.13 143.514 89.9142 143.496Z" fill="#757575" stroke="#263238" stroke-linecap="round" stroke-linejoin="round"/>
<path d="M90.706 101.962L90.5134 127.972L90.4235 140.512C90.4227 140.672 90.3871 140.829 90.3194 140.974C90.2516 141.118 90.1532 141.246 90.0311 141.349C89.9089 141.451 89.7659 141.526 89.612 141.568C89.458 141.61 89.2968 141.618 89.1395 141.591L71.5915 139.665L70.2562 139.515C69.9184 139.478 69.6056 139.32 69.3758 139.069C69.146 138.819 69.0147 138.494 69.0064 138.154L69.2846 99.6042C69.2855 99.4446 69.321 99.2872 69.3888 99.1428C69.4565 98.9984 69.5549 98.8704 69.6771 98.7678C69.7992 98.6652 69.9422 98.5904 70.0962 98.5486C70.2501 98.5068 70.4113 98.4989 70.5686 98.5256L75.084 99.0221L75.4606 99.9894L84.5471 101.008L84.9409 100.122L89.452 100.601C89.7898 100.639 90.1026 100.798 90.333 101.048C90.5633 101.298 90.6958 101.623 90.706 101.962Z" fill="white"/>
<mask id="mask15_83_3525" style="mask-type:luminance" maskUnits="userSpaceOnUse" x="69" y="98" width="22" height="44">
<path d="M90.706 101.962L90.5134 127.972L90.4235 140.512C90.4227 140.672 90.3871 140.829 90.3194 140.974C90.2516 141.118 90.1532 141.246 90.0311 141.349C89.9089 141.451 89.7659 141.526 89.612 141.568C89.458 141.61 89.2968 141.618 89.1395 141.591L71.5915 139.665L70.2562 139.515C69.9184 139.478 69.6056 139.32 69.3758 139.069C69.146 138.819 69.0147 138.494 69.0064 138.154L69.2846 99.6042C69.2855 99.4446 69.321 99.2872 69.3888 99.1428C69.4565 98.9984 69.5549 98.8704 69.6771 98.7678C69.7992 98.6652 69.9422 98.5904 70.0962 98.5486C70.2501 98.5068 70.4113 98.4989 70.5686 98.5256L75.084 99.0221L75.4606 99.9894L84.5471 101.008L84.9409 100.122L89.452 100.601C89.7898 100.639 90.1026 100.798 90.333 101.048C90.5633 101.298 90.6958 101.623 90.706 101.962Z" fill="white"/>
</mask>
<g mask="url(#mask15_83_3525)">
<path opacity="0.4" d="M90.5134 127.972L90.4235 140.512C90.4227 140.672 90.3871 140.829 90.3194 140.974C90.2516 141.118 90.1532 141.246 90.0311 141.349C89.9089 141.451 89.7659 141.526 89.612 141.568C89.458 141.61 89.2968 141.618 89.1395 141.591L71.5915 139.665L71.7756 128.062C74.6712 127.249 77.6583 126.808 80.6651 126.748C81.0931 126.748 81.5211 126.748 81.9705 126.748C84.8576 126.803 87.7269 127.214 90.5134 127.972Z" fill="#61118B"/>
<path d="M76.5307 107.522C77.5065 107.064 80.3827 107.094 80.8107 107.034C81.2387 106.974 82.6511 109.602 82.6511 109.602L80.3099 112.418C80.3099 112.418 81.1402 114.901 80.7379 114.965C79.5979 115.356 78.5042 115.872 77.4765 116.502C77.1941 116.788 78.294 117.572 77.2411 118.077C76.7378 118.36 76.1748 118.522 75.5976 118.547L75.0327 117.071C75.0327 117.071 76.8474 116.574 76.6847 115.911C76.5221 115.248 75.9828 114.199 76.5135 113.681C77.0443 113.163 78.0158 113.287 77.7975 112.624C77.5793 111.961 75.2852 108.109 76.5307 107.522Z" fill="#61118B"/>
<mask id="mask16_83_3525" style="mask-type:luminance" maskUnits="userSpaceOnUse" x="75" y="107" width="8" height="12">
<path d="M76.5307 107.522C77.5065 107.064 80.3827 107.094 80.8107 107.034C81.2387 106.974 82.6511 109.602 82.6511 109.602L80.3099 112.418C80.3099 112.418 81.1402 114.901 80.7379 114.965C79.5979 115.356 78.5042 115.872 77.4765 116.502C77.1941 116.788 78.294 117.572 77.2411 118.077C76.7378 118.36 76.1748 118.522 75.5976 118.547L75.0327 117.071C75.0327 117.071 76.8474 116.574 76.6847 115.911C76.5221 115.248 75.9828 114.199 76.5135 113.681C77.0443 113.163 78.0158 113.287 77.7975 112.624C77.5793 111.961 75.2852 108.109 76.5307 107.522Z" fill="white"/>
</mask>
<g mask="url(#mask16_83_3525)">
<path opacity="0.3" d="M80.3185 112.423C80.3185 112.423 81.1489 114.905 80.7465 114.969C79.6065 115.361 78.5129 115.876 77.4852 116.506C77.2027 116.793 78.3027 117.576 77.2498 118.081C76.7463 118.364 76.1834 118.526 75.6062 118.552L75.0413 117.075C75.0413 117.075 76.856 116.579 76.6934 115.915C76.5307 115.252 75.9914 114.203 76.5222 113.685C77.0529 113.168 78.0244 113.292 77.8062 112.628C77.5879 111.965 75.2852 108.109 76.5222 107.522C76.6496 107.466 76.7812 107.42 76.9159 107.385C76.7833 108.057 76.6377 109.341 77.391 109.791C77.7059 109.967 78.0596 110.062 78.4203 110.068C78.7811 110.074 79.1377 109.99 79.4582 109.825C79.4582 109.825 80.9605 108.567 80.9691 108.01C80.9776 107.454 78.645 107.154 78.5894 107.154C79.5909 107.077 80.5796 107.073 80.8107 107.039C81.2387 106.974 82.6511 109.607 82.6511 109.607L80.3185 112.423Z" fill="black" fill-opacity="0.7"/>
</g>
<path d="M80.6694 126.628L77.9174 119.493C77.8696 119.372 77.8705 119.236 77.9199 119.115C77.9693 118.994 78.0634 118.896 78.1827 118.843L80.9134 117.623L78.11 113.386C78.0361 113.273 78.0078 113.137 78.0308 113.004C78.0539 112.871 78.1266 112.752 78.2341 112.671L85.0479 107.535L79.9461 107.068L78.7306 107.15L79.4753 106.127C79.4753 106.127 86.1307 106.431 87.0295 106.949C87.9283 107.467 82.9421 111.61 82.9421 111.61L84.7782 112.333C84.8231 112.35 84.863 112.379 84.8943 112.415C84.9256 112.452 84.9474 112.496 84.9575 112.543C84.9677 112.59 84.966 112.639 84.9527 112.685C84.9393 112.731 84.9147 112.774 84.8809 112.808L83.2973 114.46L82.8437 117.713L86.3062 119.04C86.373 119.065 86.4337 119.104 86.4844 119.154C86.5351 119.205 86.5747 119.265 86.6005 119.332C86.6263 119.398 86.6379 119.47 86.6343 119.541C86.6308 119.612 86.6123 119.682 86.5801 119.746L83.1047 126.688L84.9537 127.065V128.242C83.8523 128.625 82.6959 128.827 81.5297 128.841C80.5896 128.858 79.6628 128.617 78.8504 128.143V127.223L80.6694 126.628Z" fill="#61118B"/>
<mask id="mask17_83_3525" style="mask-type:luminance" maskUnits="userSpaceOnUse" x="77" y="106" width="11" height="23">
<path d="M80.6694 126.628L77.9174 119.493C77.8696 119.372 77.8705 119.236 77.9199 119.115C77.9693 118.994 78.0634 118.896 78.1827 118.843L80.9134 117.623L78.11 113.386C78.0361 113.273 78.0078 113.137 78.0308 113.004C78.0539 112.871 78.1266 112.752 78.2341 112.671L85.0479 107.535L79.9461 107.068L78.7306 107.15L79.4753 106.127C79.4753 106.127 86.1307 106.431 87.0295 106.949C87.9283 107.467 82.9421 111.61 82.9421 111.61L84.7782 112.333C84.8231 112.35 84.863 112.379 84.8943 112.415C84.9256 112.452 84.9474 112.496 84.9575 112.543C84.9677 112.59 84.966 112.639 84.9527 112.685C84.9393 112.731 84.9147 112.774 84.8809 112.808L83.2973 114.46L82.8437 117.713L86.3062 119.04C86.373 119.065 86.4337 119.104 86.4844 119.154C86.5351 119.205 86.5747 119.265 86.6005 119.332C86.6263 119.398 86.6379 119.47 86.6343 119.541C86.6308 119.612 86.6123 119.682 86.5801 119.746L83.1047 126.688L84.9537 127.065V128.242C83.8523 128.625 82.6959 128.827 81.5297 128.841C80.5896 128.858 79.6628 128.617 78.8504 128.143V127.223L80.6694 126.628Z" fill="white"/>
</mask>
<g mask="url(#mask17_83_3525)">
<path opacity="0.3" d="M82.9421 111.618L84.7782 112.341C84.8231 112.359 84.863 112.387 84.8943 112.424C84.9256 112.46 84.9473 112.504 84.9575 112.551C84.9677 112.598 84.966 112.647 84.9527 112.694C84.9393 112.74 84.9147 112.782 84.8809 112.817L83.2973 114.469L82.8437 117.721C82.8437 117.721 79.5095 119.408 80.9134 117.619L78.11 113.386C78.0932 113.36 78.0788 113.333 78.0672 113.304C78.6211 113.422 79.1942 113.414 79.7449 113.283C80.6566 112.924 86.075 108.408 87.1022 107.03C87.573 107.77 82.9421 111.618 82.9421 111.618Z" fill="black" fill-opacity="0.7"/>
<path opacity="0.3" d="M84.9537 127.043C84.9537 127.043 82.6724 128.815 78.859 127.441V127.202L80.6651 126.628L77.9131 119.493C77.8744 119.397 77.8664 119.291 77.8902 119.19C77.9139 119.089 77.9683 118.997 78.0458 118.928C78.5176 119.323 79.057 119.629 79.6379 119.831L80.8064 119.382C80.6027 119.727 80.4962 120.12 80.4982 120.521C80.5795 120.974 81.962 122.023 81.962 122.023L80.892 127.052C81.2652 127.171 81.6617 127.198 82.0476 127.131C82.4336 127.064 82.7977 126.904 83.109 126.667L84.9537 127.043Z" fill="black" fill-opacity="0.7"/>
</g>
<path opacity="0.3" d="M79.9461 107.081L78.7306 107.158L79.4111 106.23C79.6145 106.367 79.8327 106.48 80.0616 106.568C81.5853 107.184 85.4159 107.107 85.4159 107.107L84.9879 107.535L79.9461 107.081Z" fill="black" fill-opacity="0.7"/>
<path opacity="0.3" d="M77.8489 118.296C77.8618 118.262 77.8793 118.23 77.9007 118.201C77.8815 118.231 77.8642 118.263 77.8489 118.296Z" fill="black" fill-opacity="0.7"/>
<path opacity="0.4" d="M81.0375 120.486C81.0375 120.486 82.5826 121.184 82.9292 121.261C83.2759 121.338 86.135 119.665 86.2505 119.48C86.3661 119.296 85.0393 119.716 83.8537 119.951C82.9191 120.073 81.971 120.043 81.046 119.861C81.046 119.861 80.7464 120.358 81.0375 120.486Z" fill="white"/>
<path opacity="0.4" d="M77.4337 109.033C77.4337 108.656 78.0372 108.909 78.7177 108.738C79.4881 108.541 80.3484 107.959 80.4554 108.061C80.6651 108.25 79.1329 109.611 78.5979 109.607C78.0629 109.602 77.4251 109.636 77.4337 109.033Z" fill="white"/>
<path opacity="0.4" d="M78.8504 112.654C78.7862 112.778 79.2356 112.654 79.4881 112.654C79.7407 112.654 84.8595 108.305 84.8809 108.211C84.9023 108.117 79.15 112.102 78.8504 112.654Z" fill="white"/>
<path d="M81.9534 112.851L84.0506 112.594C84.081 112.589 84.1091 112.575 84.1306 112.553C84.1521 112.531 84.1658 112.503 84.1697 112.472C84.1736 112.442 84.1674 112.411 84.1521 112.384C84.1367 112.357 84.1131 112.336 84.0848 112.324L83.0662 111.943C82.6008 112.107 82.2071 112.428 81.9534 112.851Z" fill="#61118B"/>
<path d="M75.6618 117.105C75.6618 117.105 77.1213 117.773 77.3952 117.426C77.5536 117.229 76.9929 116.497 76.9929 116.497L75.6618 117.105Z" fill="#61118B"/>
<path d="M76.6804 114.212C77.2546 114.332 77.8346 114.422 78.4181 114.481C78.371 114.409 77.8746 113.429 77.759 113.471C77.6434 113.514 76.612 113.801 76.6804 114.212Z" fill="#61118B"/>
</g>
<path d="M90.706 101.962L90.5134 127.972L90.4235 140.512C90.4227 140.672 90.3871 140.829 90.3194 140.974C90.2516 141.118 90.1532 141.246 90.0311 141.349C89.9089 141.451 89.7659 141.526 89.612 141.568C89.458 141.61 89.2968 141.618 89.1395 141.591L71.5915 139.665L70.2562 139.515C69.9184 139.478 69.6056 139.32 69.3758 139.069C69.146 138.819 69.0147 138.494 69.0064 138.154L69.2846 99.6042C69.2855 99.4446 69.321 99.2872 69.3888 99.1428C69.4565 98.9984 69.5549 98.8704 69.6771 98.7678C69.7992 98.6652 69.9422 98.5904 70.0962 98.5486C70.2501 98.5068 70.4113 98.4989 70.5686 98.5256L75.084 99.0221L75.4606 99.9894L84.5471 101.008L84.9409 100.122L89.452 100.601C89.7898 100.639 90.1026 100.798 90.333 101.048C90.5633 101.298 90.6958 101.623 90.706 101.962Z" stroke="#263238" stroke-linecap="round" stroke-linejoin="round"/>
<path d="M64.5467 131.396C64.5467 131.396 70.9966 126.448 72.1736 122.117C73.3506 117.786 74.3821 114.721 75.6618 117.092C77.8746 121.205 75.1011 126.406 74.6689 128.361C74.2366 130.317 75.5848 141.09 69.5329 144.921C67.4487 146.258 64.9635 146.827 62.5051 146.53" fill="white"/>
<path d="M64.5467 131.396C64.5467 131.396 70.9966 126.448 72.1736 122.117C73.3506 117.786 74.3821 114.721 75.6618 117.092C77.8746 121.205 75.1011 126.406 74.6689 128.361C74.2366 130.317 75.5848 141.09 69.5329 144.921C67.4487 146.258 64.9635 146.827 62.5051 146.53" stroke="#263238" stroke-linecap="round" stroke-linejoin="round"/>
<path d="M50.504 147.232C52.7035 147.413 54.8401 148.056 56.7741 149.119C59.7701 150.831 62.5308 157.11 62.5308 157.11L59.8472 161.784H59.2309C59.2309 161.784 54.8182 152.488 47.508 152.068L47.2554 150.998L50.504 147.232Z" fill="#263238"/>
<path d="M56.2006 156.55C56.2006 156.55 59.5776 152.043 59.8472 152.107C60.1168 152.171 62.06 154.508 61.2254 154.936C61.2254 154.936 60.2153 152.98 59.8986 153.382C59.5818 153.785 57.2236 156.447 57.2407 156.806C57.2578 157.166 58.2294 159.1 58.2294 159.1C58.2294 159.1 57.7757 159.73 57.4975 159.323C56.3419 157.62 55.9524 156.896 56.2006 156.55Z" fill="white" stroke="#263238" stroke-linecap="round" stroke-linejoin="round"/>
<path d="M58.4348 154.538C58.4749 154.487 58.5259 154.446 58.5841 154.418C58.6423 154.39 58.7061 154.375 58.7708 154.375C58.8355 154.375 58.8993 154.39 58.9575 154.418C59.0157 154.446 59.0667 154.487 59.1068 154.538L59.5947 155.137C59.6681 155.216 59.7089 155.32 59.7089 155.428C59.7089 155.536 59.6681 155.64 59.5947 155.719L59.5519 155.766C59.5082 155.817 59.4533 155.856 59.3916 155.882C59.3299 155.907 59.2631 155.918 59.1966 155.913C59.1301 155.908 59.0656 155.887 59.0084 155.853C58.9512 155.819 58.9028 155.771 58.8671 155.715L58.4177 155.073C58.3593 154.995 58.3292 154.9 58.3323 154.802C58.3354 154.705 58.3716 154.612 58.4348 154.538Z" fill="white" stroke="#263238" stroke-linecap="round" stroke-linejoin="round"/>
<path d="M73.4705 119.793C73.4705 120.456 74.3265 120.17 74.5704 120.058C74.8144 119.947 75.5891 118.552 75.5891 118.552" stroke="#263238" stroke-linecap="round" stroke-linejoin="round"/>
</svg>
